<svg width="1919" height="76" viewBox="0 0 1919 76" fill="none" xmlns="http://www.w3.org/2000/svg">
<rect width="1919" height="76" fill="#F3F6FF"/>
<g clip-path="url(#clip0_310_368)">
<path d="M409.511 21.661C410.306 20.7744 411.694 20.7744 412.489 21.661L425.602 36.2865C425.766 36.47 425.857 36.7077 425.857 36.9541V53.716C425.857 54.5878 424.819 55.0421 424.179 54.4508L411.678 42.9118C411.295 42.5582 410.705 42.5582 410.322 42.9118L397.821 54.4508C397.181 55.0421 396.143 54.5878 396.143 53.716V36.9541C396.143 36.7077 396.234 36.47 396.398 36.2865L409.511 21.661Z" fill="#FD3C76"/>
<mask id="mask0_310_368" style="mask-type:alpha" maskUnits="userSpaceOnUse" x="396" y="20" width="30" height="35">
<path d="M409.511 21.661C410.306 20.7744 411.694 20.7744 412.489 21.661L425.602 36.2865C425.766 36.47 425.857 36.7077 425.857 36.9541V53.716C425.857 54.5878 424.819 55.0421 424.179 54.4508L411.678 42.9118C411.295 42.5582 410.705 42.5582 410.322 42.9118L397.821 54.4508C397.181 55.0421 396.143 54.5878 396.143 53.716V36.9541C396.143 36.7077 396.234 36.47 396.398 36.2865L409.511 21.661Z" fill="#FD3C76"/>
</mask>
<g mask="url(#mask0_310_368)">
<path d="M411 20V42.2857L425.857 56V36.5714L411 20Z" fill="#E92862"/>
</g>
<path d="M394.389 24.868C394.997 24.1715 396.143 24.6011 396.143 25.5252V36.449C396.143 36.6796 396.063 36.903 395.917 37.0816L388.775 45.8273C388.18 46.5555 387 46.135 387 45.1947V33.7155C387 33.4739 387.088 33.2404 387.246 33.0583L394.389 24.868Z" fill="#215FFF"/>
<path d="M427.611 24.868C427.003 24.1715 425.857 24.6011 425.857 25.5252V36.449C425.857 36.6796 425.937 36.903 426.083 37.0816L433.225 45.8273C433.82 46.5555 435 46.135 435 45.1947V33.7155C435 33.4739 434.912 33.2404 434.754 33.0583L427.611 24.868Z" fill="#215FFF"/>
</g>
<rect x="513" y="20" width="220" height="36" rx="5" fill="#005DFF"/>
<path d="M536.587 43.5V32.14H538.651V36.764H540.123L542.795 32.14H545.035L541.819 37.548V37.58L545.227 43.5H542.891L540.123 38.54H538.651V43.5H536.587ZM545.784 41.244C545.784 40.668 545.939 40.1773 546.248 39.772C546.568 39.3667 546.984 39.0733 547.496 38.892C548.019 38.7 548.52 38.5667 549 38.492C549.491 38.4173 550.003 38.38 550.536 38.38H550.888V38.268C550.888 37.308 550.376 36.828 549.352 36.828C548.606 36.828 547.848 37.0893 547.08 37.612L546.328 36.156C546.68 35.8787 547.155 35.644 547.752 35.452C548.35 35.2493 548.942 35.148 549.528 35.148C550.595 35.148 551.427 35.436 552.024 36.012C552.622 36.5773 552.92 37.372 552.92 38.396V43.5H551.032V42.812L551.08 42.22H551.048C550.792 42.6573 550.435 43.0147 549.976 43.292C549.518 43.5587 549.016 43.692 548.472 43.692C547.715 43.692 547.075 43.468 546.552 43.02C546.04 42.5613 545.784 41.9693 545.784 41.244ZM547.8 41.068C547.8 41.356 547.907 41.6067 548.12 41.82C548.344 42.0333 548.648 42.14 549.032 42.14C549.576 42.14 550.024 41.916 550.376 41.468C550.728 41.02 550.904 40.5293 550.904 39.996V39.772H550.552C548.718 39.772 547.8 40.204 547.8 41.068ZM556.812 43.5V37.068H554.124V35.34H561.532V37.068H558.828V43.5H556.812ZM562.191 41.244C562.191 40.668 562.345 40.1773 562.655 39.772C562.975 39.3667 563.391 39.0733 563.903 38.892C564.425 38.7 564.927 38.5667 565.407 38.492C565.897 38.4173 566.409 38.38 566.943 38.38H567.295V38.268C567.295 37.308 566.783 36.828 565.759 36.828C565.012 36.828 564.255 37.0893 563.487 37.612L562.735 36.156C563.087 35.8787 563.561 35.644 564.159 35.452C564.756 35.2493 565.348 35.148 565.935 35.148C567.001 35.148 567.833 35.436 568.431 36.012C569.028 36.5773 569.327 37.372 569.327 38.396V43.5H567.439V42.812L567.487 42.22H567.455C567.199 42.6573 566.841 43.0147 566.383 43.292C565.924 43.5587 565.423 43.692 564.879 43.692C564.121 43.692 563.481 43.468 562.959 43.02C562.447 42.5613 562.191 41.9693 562.191 41.244ZM564.207 41.068C564.207 41.356 564.313 41.6067 564.527 41.82C564.751 42.0333 565.055 42.14 565.439 42.14C565.983 42.14 566.431 41.916 566.783 41.468C567.135 41.02 567.311 40.5293 567.311 39.996V39.772H566.959C565.124 39.772 564.207 40.204 564.207 41.068ZM570.625 43.58V41.788C571.179 41.7133 571.601 41.388 571.889 40.812C572.187 40.2253 572.337 39.2547 572.337 37.9V35.34H578.289V43.5H576.257V36.988H574.273V37.9C574.273 39.756 573.99 41.1587 573.425 42.108C572.859 43.0467 571.926 43.5373 570.625 43.58ZM581.271 42.492C580.407 41.6813 579.975 40.6573 579.975 39.42C579.975 38.1827 580.407 37.164 581.271 36.364C582.135 35.5533 583.191 35.148 584.439 35.148C585.697 35.148 586.759 35.5533 587.623 36.364C588.497 37.164 588.935 38.1827 588.935 39.42C588.935 40.6573 588.503 41.6813 587.639 42.492C586.775 43.292 585.713 43.692 584.455 43.692C583.196 43.692 582.135 43.292 581.271 42.492ZM582.039 39.42C582.039 40.1667 582.268 40.78 582.727 41.26C583.196 41.7293 583.772 41.964 584.455 41.964C585.137 41.964 585.713 41.7293 586.183 41.26C586.652 40.78 586.887 40.1667 586.887 39.42C586.887 38.684 586.647 38.076 586.167 37.596C585.697 37.116 585.127 36.876 584.455 36.876C583.783 36.876 583.212 37.116 582.743 37.596C582.273 38.076 582.039 38.684 582.039 39.42ZM590.611 43.5V35.34H595.971V37.068H592.643V43.5H590.611ZM601.361 43.5V35.34H608.801V43.5H606.769V37.068H603.393V43.5H601.361ZM610.971 46.7V35.34H612.827V35.948L612.795 36.524H612.827C613.093 36.0867 613.456 35.7507 613.915 35.516C614.384 35.2707 614.896 35.148 615.451 35.148C616.549 35.148 617.424 35.5427 618.075 36.332C618.736 37.1213 619.067 38.1507 619.067 39.42C619.067 40.7 618.715 41.7347 618.011 42.524C617.317 43.3027 616.427 43.692 615.339 43.692C614.368 43.692 613.584 43.308 612.987 42.54H612.955C612.987 42.732 613.003 42.9667 613.003 43.244V46.7H610.971ZM612.939 39.468C612.939 40.1507 613.12 40.7427 613.483 41.244C613.845 41.7347 614.341 41.98 614.971 41.98C615.557 41.98 616.043 41.756 616.427 41.308C616.821 40.8493 617.019 40.2307 617.019 39.452C617.019 38.684 616.832 38.0653 616.459 37.596C616.085 37.1267 615.6 36.892 615.003 36.892C614.416 36.892 613.925 37.1107 613.531 37.548C613.136 37.9747 612.939 38.6147 612.939 39.468ZM621.599 42.492C620.735 41.6813 620.303 40.6573 620.303 39.42C620.303 38.1827 620.735 37.164 621.599 36.364C622.463 35.5533 623.519 35.148 624.767 35.148C626.026 35.148 627.087 35.5533 627.951 36.364C628.826 37.164 629.263 38.1827 629.263 39.42C629.263 40.6573 628.831 41.6813 627.967 42.492C627.103 43.292 626.042 43.692 624.783 43.692C623.524 43.692 622.463 43.292 621.599 42.492ZM622.367 39.42C622.367 40.1667 622.596 40.78 623.055 41.26C623.524 41.7293 624.1 41.964 624.783 41.964C625.466 41.964 626.042 41.7293 626.511 41.26C626.98 40.78 627.215 40.1667 627.215 39.42C627.215 38.684 626.975 38.076 626.495 37.596C626.026 37.116 625.455 36.876 624.783 36.876C624.111 36.876 623.54 37.116 623.071 37.596C622.602 38.076 622.367 38.684 622.367 39.42ZM630.94 43.5V35.34H636.3V37.068H632.972V43.5H630.94ZM637.69 46.7V35.34H639.546V35.948L639.514 36.524H639.546C639.812 36.0867 640.175 35.7507 640.634 35.516C641.103 35.2707 641.615 35.148 642.17 35.148C643.268 35.148 644.143 35.5427 644.794 36.332C645.455 37.1213 645.786 38.1507 645.786 39.42C645.786 40.7 645.434 41.7347 644.73 42.524C644.036 43.3027 643.146 43.692 642.058 43.692C641.087 43.692 640.303 43.308 639.706 42.54H639.674C639.706 42.732 639.722 42.9667 639.722 43.244V46.7H637.69ZM639.658 39.468C639.658 40.1507 639.839 40.7427 640.202 41.244C640.564 41.7347 641.06 41.98 641.69 41.98C642.276 41.98 642.762 41.756 643.146 41.308C643.54 40.8493 643.738 40.2307 643.738 39.452C643.738 38.684 643.551 38.0653 643.178 37.596C642.804 37.1267 642.319 36.892 641.722 36.892C641.135 36.892 640.644 37.1107 640.25 37.548C639.855 37.9747 639.658 38.6147 639.658 39.468ZM646.894 41.244C646.894 40.668 647.048 40.1773 647.358 39.772C647.678 39.3667 648.094 39.0733 648.606 38.892C649.128 38.7 649.63 38.5667 650.11 38.492C650.6 38.4173 651.112 38.38 651.646 38.38H651.998V38.268C651.998 37.308 651.486 36.828 650.462 36.828C649.715 36.828 648.958 37.0893 648.19 37.612L647.438 36.156C647.79 35.8787 648.264 35.644 648.862 35.452C649.459 35.2493 650.051 35.148 650.638 35.148C651.704 35.148 652.536 35.436 653.134 36.012C653.731 36.5773 654.03 37.372 654.03 38.396V43.5H652.142V42.812L652.19 42.22H652.158C651.902 42.6573 651.544 43.0147 651.086 43.292C650.627 43.5587 650.126 43.692 649.582 43.692C648.824 43.692 648.184 43.468 647.662 43.02C647.15 42.5613 646.894 41.9693 646.894 41.244ZM648.91 41.068C648.91 41.356 649.016 41.6067 649.23 41.82C649.454 42.0333 649.758 42.14 650.142 42.14C650.686 42.14 651.134 41.916 651.486 41.468C651.838 41.02 652.014 40.5293 652.014 39.996V39.772H651.662C649.827 39.772 648.91 40.204 648.91 41.068ZM655.76 43.5L656.496 35.34H658.8L660.528 39.548L660.928 40.588H660.96C661.109 40.204 661.242 39.8573 661.36 39.548L663.12 35.34H665.392L666.128 43.5H664.176L663.888 39.084L663.904 37.692H663.872C663.722 38.0973 663.562 38.492 663.392 38.876L661.792 42.476H660.112L658.512 38.892L658.016 37.692H657.984L658 39.084L657.712 43.5H655.76ZM667.65 43.5L668.386 35.34H670.69L672.418 39.548L672.818 40.588H672.85C673 40.204 673.133 39.8573 673.25 39.548L675.01 35.34H677.282L678.018 43.5H676.066L675.778 39.084L675.794 37.692H675.762C675.613 38.0973 675.453 38.492 675.282 38.876L673.682 42.476H672.002L670.402 38.892L669.906 37.692H669.874L669.89 39.084L669.602 43.5H667.65Z" fill="white"/>
<g clip-path="url(#clip1_310_368)">
<path d="M710 46L692 46L692 44L710 44L710 46ZM710 39L692 39L692 37L710 37L710 39ZM710 32L692 32L692 30L710 30L710 32Z" fill="white"/>
</g>
<path d="M811.784 37.272C811.784 35.6507 812.344 34.2853 813.464 33.176C814.584 32.0667 815.96 31.512 817.592 31.512C819.224 31.512 820.595 32.0667 821.704 33.176C822.824 34.2853 823.384 35.6507 823.384 37.272C823.384 38.936 822.824 40.3387 821.704 41.48C820.595 42.6213 819.224 43.192 817.592 43.192C815.96 43.192 814.584 42.6213 813.464 41.48C812.344 40.3387 811.784 38.936 811.784 37.272ZM813.416 37.272C813.416 38.5307 813.821 39.592 814.632 40.456C815.443 41.3093 816.429 41.736 817.592 41.736C818.755 41.736 819.736 41.3093 820.536 40.456C821.347 39.592 821.752 38.5307 821.752 37.272C821.752 36.056 821.347 35.032 820.536 34.2C819.736 33.368 818.755 32.952 817.592 32.952C816.429 32.952 815.443 33.368 814.632 34.2C813.821 35.032 813.416 36.056 813.416 37.272ZM825.02 38.344C825.02 36.84 825.287 35.6347 825.82 34.728C826.353 33.8213 827.303 33.08 828.668 32.504L831.564 31.256L832.076 32.536L828.972 33.832C828.161 34.2053 827.553 34.648 827.148 35.16C826.753 35.6613 826.529 36.296 826.476 37.064H826.508C827.148 36.104 828.103 35.624 829.372 35.624C830.396 35.624 831.223 35.9653 831.852 36.648C832.492 37.32 832.812 38.2213 832.812 39.352C832.812 40.4827 832.46 41.4053 831.756 42.12C831.052 42.8347 830.129 43.192 828.988 43.192C827.676 43.192 826.684 42.7547 826.012 41.88C825.351 40.9947 825.02 39.816 825.02 38.344ZM826.636 39.352C826.636 40.1307 826.855 40.7493 827.292 41.208C827.729 41.656 828.273 41.88 828.924 41.88C829.585 41.88 830.135 41.656 830.572 41.208C831.02 40.7493 831.244 40.1413 831.244 39.384C831.244 38.616 831.025 38.0027 830.588 37.544C830.151 37.0853 829.617 36.856 828.988 36.856C828.305 36.856 827.74 37.096 827.292 37.576C826.855 38.0453 826.636 38.6373 826.636 39.352ZM838.075 40.792C838.075 40.1947 838.24 39.6933 838.571 39.288C838.902 38.8827 839.339 38.5947 839.883 38.424C840.438 38.2427 840.95 38.12 841.419 38.056C841.888 37.992 842.384 37.96 842.907 37.96H843.323V37.8C843.323 36.616 842.731 36.024 841.547 36.024C840.768 36.024 840.011 36.2853 839.275 36.808L838.651 35.672C838.982 35.3947 839.43 35.1653 839.995 34.984C840.56 34.8027 841.12 34.712 841.675 34.712C842.699 34.712 843.488 34.984 844.043 35.528C844.598 36.072 844.875 36.856 844.875 37.88V43H843.419V42.184L843.467 41.544H843.435C843.19 42.024 842.827 42.4187 842.347 42.728C841.878 43.0373 841.355 43.192 840.779 43.192C840.043 43.192 839.408 42.9733 838.875 42.536C838.342 42.0987 838.075 41.5173 838.075 40.792ZM839.627 40.664C839.627 41.016 839.76 41.32 840.027 41.576C840.294 41.832 840.667 41.96 841.147 41.96C841.787 41.96 842.31 41.6933 842.715 41.16C843.12 40.6267 843.323 40.0347 843.323 39.384V39.08H842.923C840.726 39.08 839.627 39.608 839.627 40.664ZM847.169 43V34.904H848.721V38.168H849.857L852.065 34.904H853.825L851.121 38.76V38.792L854.145 43H852.305L849.889 39.496H848.721V43H847.169ZM854.778 40.792C854.778 40.1947 854.943 39.6933 855.274 39.288C855.605 38.8827 856.042 38.5947 856.586 38.424C857.141 38.2427 857.653 38.12 858.122 38.056C858.591 37.992 859.087 37.96 859.61 37.96H860.026V37.8C860.026 36.616 859.434 36.024 858.25 36.024C857.471 36.024 856.714 36.2853 855.978 36.808L855.354 35.672C855.685 35.3947 856.133 35.1653 856.698 34.984C857.263 34.8027 857.823 34.712 858.378 34.712C859.402 34.712 860.191 34.984 860.746 35.528C861.301 36.072 861.578 36.856 861.578 37.88V43H860.122V42.184L860.17 41.544H860.138C859.893 42.024 859.53 42.4187 859.05 42.728C858.581 43.0373 858.058 43.192 857.482 43.192C856.746 43.192 856.111 42.9733 855.578 42.536C855.045 42.0987 854.778 41.5173 854.778 40.792ZM856.33 40.664C856.33 41.016 856.463 41.32 856.73 41.576C856.997 41.832 857.37 41.96 857.85 41.96C858.49 41.96 859.013 41.6933 859.418 41.16C859.823 40.6267 860.026 40.0347 860.026 39.384V39.08H859.626C857.429 39.08 856.33 39.608 856.33 40.664ZM865.456 41.72H869.04V36.168H866.608V36.6C866.608 38.8187 866.224 40.5253 865.456 41.72ZM862.864 41.72H863.856C864.699 40.568 865.12 38.792 865.12 36.392V34.904H870.592V41.72H871.744V44.92H870.32V43H864.32V44.92H862.864V41.72ZM872.75 38.952C872.75 37.6827 873.134 36.6587 873.902 35.88C874.67 35.1013 875.641 34.712 876.814 34.712C877.913 34.712 878.771 35.0747 879.39 35.8C880.009 36.5147 880.318 37.416 880.318 38.504C880.318 38.6427 880.297 38.8613 880.254 39.16H874.366C874.409 40.0027 874.691 40.664 875.214 41.144C875.747 41.6133 876.393 41.848 877.15 41.848C878.035 41.848 878.83 41.5333 879.534 40.904L880.19 42.04C879.806 42.392 879.326 42.6747 878.75 42.888C878.185 43.0907 877.619 43.192 877.054 43.192C875.795 43.192 874.761 42.792 873.95 41.992C873.15 41.1813 872.75 40.168 872.75 38.952ZM874.414 38.04H878.75C878.729 37.368 878.531 36.8453 878.158 36.472C877.795 36.0987 877.337 35.912 876.782 35.912C876.174 35.912 875.651 36.104 875.214 36.488C874.787 36.8613 874.521 37.3787 874.414 38.04ZM881.848 43L882.552 34.904H884.28L886.344 39.48L886.792 40.568H886.824C886.984 40.1733 887.134 39.8107 887.272 39.48L889.384 34.904H891.08L891.784 43H890.28L889.928 38.184L889.944 36.792H889.912C889.774 37.1653 889.603 37.56 889.4 37.976L887.48 42.024H886.152L884.232 37.992L883.72 36.792H883.688L883.704 38.184L883.352 43H881.848ZM893.872 43V34.904H895.36V39.736C895.36 40.3013 895.344 40.664 895.312 40.824H895.344C895.397 40.696 895.637 40.3333 896.064 39.736L899.552 34.904H901.056V43H899.552V38.168C899.552 38.0187 899.557 37.8107 899.568 37.544C899.589 37.2667 899.6 37.1173 899.6 37.096H899.568C899.557 37.1173 899.323 37.4747 898.864 38.168L895.36 43H893.872ZM903.434 43V34.904H904.922V39.736C904.922 40.3013 904.906 40.664 904.874 40.824H904.906C904.96 40.696 905.2 40.3333 905.626 39.736L909.114 34.904H910.618V43H909.114V38.168C909.114 38.0187 909.12 37.8107 909.13 37.544C909.152 37.2667 909.162 37.1173 909.162 37.096H909.13C909.12 37.1173 908.885 37.4747 908.426 38.168L904.922 43H903.434Z" fill="#050505"/>
<path d="M953.488 43V31.704H955.072V36.664H960.944V31.704H962.512V43H960.944V38.04H955.072V43H953.488ZM964.516 38.936C964.516 37.7307 964.937 36.728 965.78 35.928C966.622 35.1173 967.652 34.712 968.868 34.712C970.094 34.712 971.129 35.112 971.972 35.912C972.814 36.712 973.236 37.72 973.236 38.936C973.236 40.152 972.814 41.1653 971.972 41.976C971.129 42.7867 970.1 43.192 968.884 43.192C967.668 43.192 966.633 42.7867 965.78 41.976C964.937 41.1653 964.516 40.152 964.516 38.936ZM966.1 38.936C966.1 39.7787 966.366 40.4773 966.9 41.032C967.444 41.576 968.105 41.848 968.884 41.848C969.652 41.848 970.308 41.5707 970.852 41.016C971.396 40.4613 971.668 39.768 971.668 38.936C971.668 38.104 971.396 37.416 970.852 36.872C970.308 36.328 969.652 36.056 968.884 36.056C968.105 36.056 967.444 36.328 966.9 36.872C966.366 37.416 966.1 38.104 966.1 38.936ZM975.106 43V34.904H978.45C979.282 34.904 979.938 35.0853 980.418 35.448C980.909 35.8 981.154 36.312 981.154 36.984C981.154 37.3787 981.053 37.736 980.85 38.056C980.648 38.3653 980.365 38.6 980.002 38.76V38.776C980.493 38.8933 980.872 39.128 981.138 39.48C981.405 39.832 981.538 40.2373 981.538 40.696C981.538 41.432 981.266 42.0027 980.722 42.408C980.189 42.8027 979.469 43 978.562 43H975.106ZM976.658 38.328H978.178C978.637 38.328 978.984 38.2213 979.218 38.008C979.453 37.784 979.57 37.48 979.57 37.096C979.57 36.3493 979.09 35.976 978.13 35.976H976.658V38.328ZM976.658 41.912H978.322C978.866 41.912 979.277 41.8 979.554 41.576C979.832 41.352 979.97 41.0427 979.97 40.648C979.97 40.2427 979.826 39.928 979.538 39.704C979.25 39.48 978.84 39.368 978.306 39.368H976.658V41.912ZM982.891 38.936C982.891 37.7307 983.312 36.728 984.155 35.928C984.997 35.1173 986.027 34.712 987.243 34.712C988.469 34.712 989.504 35.112 990.347 35.912C991.189 36.712 991.611 37.72 991.611 38.936C991.611 40.152 991.189 41.1653 990.347 41.976C989.504 42.7867 988.475 43.192 987.259 43.192C986.043 43.192 985.008 42.7867 984.155 41.976C983.312 41.1653 982.891 40.152 982.891 38.936ZM984.475 38.936C984.475 39.7787 984.741 40.4773 985.275 41.032C985.819 41.576 986.48 41.848 987.259 41.848C988.027 41.848 988.683 41.5707 989.227 41.016C989.771 40.4613 990.043 39.768 990.043 38.936C990.043 38.104 989.771 37.416 989.227 36.872C988.683 36.328 988.027 36.056 987.259 36.056C986.48 36.056 985.819 36.328 985.275 36.872C984.741 37.416 984.475 38.104 984.475 38.936ZM992.953 38.952C992.953 37.7467 993.359 36.7387 994.169 35.928C994.991 35.1173 996.031 34.712 997.289 34.712C998.569 34.712 999.583 35.1067 1000.33 35.896L999.593 36.984C998.975 36.3653 998.228 36.056 997.353 36.056C996.543 36.056 995.871 36.3333 995.337 36.888C994.804 37.432 994.537 38.1147 994.537 38.936C994.537 39.768 994.804 40.4613 995.337 41.016C995.881 41.5707 996.569 41.848 997.401 41.848C997.849 41.848 998.297 41.752 998.745 41.56C999.204 41.3573 999.588 41.0907 999.897 40.76L1000.52 41.896C1000.15 42.2907 999.673 42.6053 999.097 42.84C998.521 43.0747 997.919 43.192 997.289 43.192C996.02 43.192 994.98 42.792 994.169 41.992C993.359 41.192 992.953 40.1787 992.953 38.952ZM1004.15 43V36.232H1001.34V34.904H1008.52V36.232H1005.69V43H1004.15ZM1010.04 43V34.904H1011.53V39.736C1011.53 40.3013 1011.52 40.664 1011.48 40.824H1011.52C1011.57 40.696 1011.81 40.3333 1012.24 39.736L1015.72 34.904H1017.23V43H1015.72V38.168C1015.72 38.0187 1015.73 37.8107 1015.74 37.544C1015.76 37.2667 1015.77 37.1173 1015.77 37.096H1015.74C1015.73 37.1173 1015.49 37.4747 1015.04 38.168L1011.53 43H1010.04Z" fill="#050505"/>
<path d="M1059.78 37.272C1059.78 35.6507 1060.34 34.2853 1061.46 33.176C1062.58 32.0667 1063.96 31.512 1065.59 31.512C1067.22 31.512 1068.59 32.0667 1069.7 33.176C1070.82 34.2853 1071.38 35.6507 1071.38 37.272C1071.38 38.936 1070.82 40.3387 1069.7 41.48C1068.59 42.6213 1067.22 43.192 1065.59 43.192C1063.96 43.192 1062.58 42.6213 1061.46 41.48C1060.34 40.3387 1059.78 38.936 1059.78 37.272ZM1061.42 37.272C1061.42 38.5307 1061.82 39.592 1062.63 40.456C1063.44 41.3093 1064.43 41.736 1065.59 41.736C1066.75 41.736 1067.74 41.3093 1068.54 40.456C1069.35 39.592 1069.75 38.5307 1069.75 37.272C1069.75 36.056 1069.35 35.032 1068.54 34.2C1067.74 33.368 1066.75 32.952 1065.59 32.952C1064.43 32.952 1063.44 33.368 1062.63 34.2C1061.82 35.032 1061.42 36.056 1061.42 37.272ZM1073.28 43V34.904H1080.35V43H1078.8V36.232H1074.83V43H1073.28ZM1081.87 43.08V41.688C1082.47 41.592 1082.93 41.2133 1083.23 40.552C1083.54 39.88 1083.69 38.8293 1083.69 37.4V34.904H1089.11V43H1087.56V36.184H1085.18V37.4C1085.18 39.2667 1084.92 40.664 1084.39 41.592C1083.88 42.52 1083.04 43.016 1081.87 43.08ZM1090.84 40.792C1090.84 40.1947 1091.01 39.6933 1091.34 39.288C1091.67 38.8827 1092.1 38.5947 1092.65 38.424C1093.2 38.2427 1093.72 38.12 1094.18 38.056C1094.65 37.992 1095.15 37.96 1095.67 37.96H1096.09V37.8C1096.09 36.616 1095.5 36.024 1094.31 36.024C1093.53 36.024 1092.78 36.2853 1092.04 36.808L1091.42 35.672C1091.75 35.3947 1092.2 35.1653 1092.76 34.984C1093.33 34.8027 1093.89 34.712 1094.44 34.712C1095.46 34.712 1096.25 34.984 1096.81 35.528C1097.36 36.072 1097.64 36.856 1097.64 37.88V43H1096.18V42.184L1096.23 41.544H1096.2C1095.96 42.024 1095.59 42.4187 1095.11 42.728C1094.64 43.0373 1094.12 43.192 1093.54 43.192C1092.81 43.192 1092.17 42.9733 1091.64 42.536C1091.11 42.0987 1090.84 41.5173 1090.84 40.792ZM1092.39 40.664C1092.39 41.016 1092.53 41.32 1092.79 41.576C1093.06 41.832 1093.43 41.96 1093.91 41.96C1094.55 41.96 1095.08 41.6933 1095.48 41.16C1095.89 40.6267 1096.09 40.0347 1096.09 39.384V39.08H1095.69C1093.49 39.08 1092.39 39.608 1092.39 40.664ZM1101.78 43V36.232H1098.96V34.904H1106.15V36.232H1103.31V43H1101.78ZM1106.92 40.792C1106.92 40.1947 1107.08 39.6933 1107.41 39.288C1107.75 38.8827 1108.18 38.5947 1108.73 38.424C1109.28 38.2427 1109.79 38.12 1110.26 38.056C1110.73 37.992 1111.23 37.96 1111.75 37.96H1112.17V37.8C1112.17 36.616 1111.57 36.024 1110.39 36.024C1109.61 36.024 1108.85 36.2853 1108.12 36.808L1107.49 35.672C1107.83 35.3947 1108.27 35.1653 1108.84 34.984C1109.4 34.8027 1109.96 34.712 1110.52 34.712C1111.54 34.712 1112.33 34.984 1112.89 35.528C1113.44 36.072 1113.72 36.856 1113.72 37.88V43H1112.26V42.184L1112.31 41.544H1112.28C1112.03 42.024 1111.67 42.4187 1111.19 42.728C1110.72 43.0373 1110.2 43.192 1109.62 43.192C1108.89 43.192 1108.25 42.9733 1107.72 42.536C1107.19 42.0987 1106.92 41.5173 1106.92 40.792ZM1108.47 40.664C1108.47 41.016 1108.6 41.32 1108.87 41.576C1109.14 41.832 1109.51 41.96 1109.99 41.96C1110.63 41.96 1111.15 41.6933 1111.56 41.16C1111.96 40.6267 1112.17 40.0347 1112.17 39.384V39.08H1111.77C1109.57 39.08 1108.47 39.608 1108.47 40.664Z" fill="#050505"/>
<path d="M1156.49 43V31.704H1158.07V36.456H1159.75L1162.62 31.704H1164.36L1161.06 37.064V37.096L1164.57 43H1162.76L1159.75 37.832H1158.07V43H1156.49ZM1165.08 38.936C1165.08 37.7307 1165.5 36.728 1166.34 35.928C1167.18 35.1173 1168.21 34.712 1169.43 34.712C1170.66 34.712 1171.69 35.112 1172.53 35.912C1173.38 36.712 1173.8 37.72 1173.8 38.936C1173.8 40.152 1173.38 41.1653 1172.53 41.976C1171.69 42.7867 1170.66 43.192 1169.45 43.192C1168.23 43.192 1167.2 42.7867 1166.34 41.976C1165.5 41.1653 1165.08 40.152 1165.08 38.936ZM1166.66 38.936C1166.66 39.7787 1166.93 40.4773 1167.46 41.032C1168.01 41.576 1168.67 41.848 1169.45 41.848C1170.21 41.848 1170.87 41.5707 1171.41 41.016C1171.96 40.4613 1172.23 39.768 1172.23 38.936C1172.23 38.104 1171.96 37.416 1171.41 36.872C1170.87 36.328 1170.21 36.056 1169.45 36.056C1168.67 36.056 1168.01 36.328 1167.46 36.872C1166.93 37.416 1166.66 38.104 1166.66 38.936ZM1175.67 43V34.904H1177.22V38.2H1181.32V34.904H1182.87V43H1181.32V39.528H1177.22V43H1175.67ZM1187.21 43V36.232H1184.4V34.904H1191.58V36.232H1188.75V43H1187.21ZM1192.36 40.792C1192.36 40.1947 1192.52 39.6933 1192.85 39.288C1193.18 38.8827 1193.62 38.5947 1194.16 38.424C1194.72 38.2427 1195.23 38.12 1195.7 38.056C1196.17 37.992 1196.67 37.96 1197.19 37.96H1197.6V37.8C1197.6 36.616 1197.01 36.024 1195.83 36.024C1195.05 36.024 1194.29 36.2853 1193.56 36.808L1192.93 35.672C1193.26 35.3947 1193.71 35.1653 1194.28 34.984C1194.84 34.8027 1195.4 34.712 1195.96 34.712C1196.98 34.712 1197.77 34.984 1198.32 35.528C1198.88 36.072 1199.16 36.856 1199.16 37.88V43H1197.7V42.184L1197.75 41.544H1197.72C1197.47 42.024 1197.11 42.4187 1196.63 42.728C1196.16 43.0373 1195.64 43.192 1195.06 43.192C1194.32 43.192 1193.69 42.9733 1193.16 42.536C1192.62 42.0987 1192.36 41.5173 1192.36 40.792ZM1193.91 40.664C1193.91 41.016 1194.04 41.32 1194.31 41.576C1194.57 41.832 1194.95 41.96 1195.43 41.96C1196.07 41.96 1196.59 41.6933 1197 41.16C1197.4 40.6267 1197.6 40.0347 1197.6 39.384V39.08H1197.2C1195.01 39.08 1193.91 39.608 1193.91 40.664ZM1201.45 43V34.904H1203V38.168H1204.14L1206.35 34.904H1208.11L1205.4 38.76V38.792L1208.43 43H1206.59L1204.17 39.496H1203V43H1201.45ZM1211.76 43V36.232H1208.95V34.904H1216.13V36.232H1213.3V43H1211.76ZM1224.98 43V34.904H1226.53V43H1224.98ZM1217.65 43V34.904H1219.21V37.832H1220.79C1221.69 37.832 1222.4 38.0507 1222.93 38.488C1223.47 38.9147 1223.73 39.5653 1223.73 40.44C1223.73 41.2293 1223.48 41.8533 1222.98 42.312C1222.49 42.7707 1221.75 43 1220.77 43H1217.65ZM1219.21 41.88H1220.57C1221.1 41.88 1221.5 41.752 1221.77 41.496C1222.03 41.2293 1222.17 40.872 1222.17 40.424C1222.17 39.976 1222.03 39.6187 1221.77 39.352C1221.5 39.0853 1221.09 38.952 1220.55 38.952H1219.21V41.88Z" fill="#050505"/>
<g clip-path="url(#clip2_310_368)">
<path d="M1324.03 42.617L1328.31 46.899L1326.9 48.314L1322.62 44.031C1321.02 45.3082 1319.04 46.0029 1317 46C1312.03 46 1308 41.968 1308 37C1308 32.032 1312.03 28 1317 28C1321.97 28 1326 32.032 1326 37C1326 39.042 1325.31 41.0237 1324.03 42.617ZM1322.02 41.875C1323.29 40.5699 1324 38.8204 1324 37C1324 33.132 1320.87 30 1317 30C1313.13 30 1310 33.132 1310 37C1310 40.867 1313.13 44 1317 44C1318.82 44.0029 1320.57 43.2941 1321.88 42.025L1322.02 41.875Z" fill="#005DFF"/>
</g>
<path d="M1415.55 44.6C1414.35 44.6 1413.38 45.59 1413.38 46.8C1413.38 48.01 1414.35 49 1415.55 49C1416.75 49 1417.73 48.01 1417.73 46.8C1417.73 45.59 1416.75 44.6 1415.55 44.6ZM1426.46 44.6C1425.26 44.6 1424.29 45.59 1424.29 46.8C1424.29 48.01 1425.26 49 1426.46 49C1427.66 49 1428.64 48.01 1428.64 46.8C1428.64 45.59 1427.66 44.6 1426.46 44.6ZM1416.75 39.1H1424.88C1425.7 39.1 1426.42 38.649 1426.79 37.967L1431 30.256L1429.1 29.2L1428.37 30.539H1413.89L1414.46 32.5477H1427.55L1424.88 36.9H1417.22L1412.57 27H1409V29.2H1411.18L1415.11 37.549L1413.64 40.233C1412.84 41.707 1413.89 43.5 1415.55 43.5H1428.64V41.3H1415.55L1416.75 39.1Z" fill="#005DFF"/>
<g clip-path="url(#clip3_310_368)">
<path d="M1519.9 32.3981L1518.36 33.9667L1521.22 36.8796H1510V39.1204H1521.22L1518.36 42.0333L1519.9 43.6018L1525.4 38L1519.9 32.3981ZM1529.8 45.8426H1521V48.0833H1529.8C1531.01 48.0833 1532 47.075 1532 45.8426V30.1574C1532 28.925 1531.01 27.9167 1529.8 27.9167H1521V30.1574H1529.8V45.8426Z" fill="#215FFF"/>
</g>
<defs>
<clipPath id="clip0_310_368">
<rect width="48" height="36" fill="white" transform="translate(387 20)"/>
</clipPath>
<clipPath id="clip1_310_368">
<rect width="24" height="24" fill="white" transform="translate(713 50) rotate(-180)"/>
</clipPath>
<clipPath id="clip2_310_368">
<rect width="24" height="24" fill="white" transform="translate(1306 26)"/>
</clipPath>
<clipPath id="clip3_310_368">
<rect width="22" height="22" fill="white" transform="translate(1510 27)"/>
</clipPath>
</defs>
</svg>
