<svg width="1920" height="124" viewBox="0 0 1920 124" fill="none" xmlns="http://www.w3.org/2000/svg">
<rect width="1920" height="48" fill="#F3F6FF"/>
<path d="M886.784 97.272C886.784 95.6507 887.344 94.2853 888.464 93.176C889.584 92.0667 890.96 91.512 892.592 91.512C894.224 91.512 895.595 92.0667 896.704 93.176C897.824 94.2853 898.384 95.6507 898.384 97.272C898.384 98.936 897.824 100.339 896.704 101.48C895.595 102.621 894.224 103.192 892.592 103.192C890.96 103.192 889.584 102.621 888.464 101.48C887.344 100.339 886.784 98.936 886.784 97.272ZM888.416 97.272C888.416 98.5307 888.821 99.592 889.632 100.456C890.443 101.309 891.429 101.736 892.592 101.736C893.755 101.736 894.736 101.309 895.536 100.456C896.347 99.592 896.752 98.5307 896.752 97.272C896.752 96.056 896.347 95.032 895.536 94.2C894.736 93.368 893.755 92.952 892.592 92.952C891.429 92.952 890.443 93.368 889.632 94.2C888.821 95.032 888.416 96.056 888.416 97.272ZM900.02 98.344C900.02 96.84 900.287 95.6347 900.82 94.728C901.353 93.8213 902.303 93.08 903.668 92.504L906.564 91.256L907.076 92.536L903.972 93.832C903.161 94.2053 902.553 94.648 902.148 95.16C901.753 95.6613 901.529 96.296 901.476 97.064H901.508C902.148 96.104 903.103 95.624 904.372 95.624C905.396 95.624 906.223 95.9653 906.852 96.648C907.492 97.32 907.812 98.2213 907.812 99.352C907.812 100.483 907.46 101.405 906.756 102.12C906.052 102.835 905.129 103.192 903.988 103.192C902.676 103.192 901.684 102.755 901.012 101.88C900.351 100.995 900.02 99.816 900.02 98.344ZM901.636 99.352C901.636 100.131 901.855 100.749 902.292 101.208C902.729 101.656 903.273 101.88 903.924 101.88C904.585 101.88 905.135 101.656 905.572 101.208C906.02 100.749 906.244 100.141 906.244 99.384C906.244 98.616 906.025 98.0027 905.588 97.544C905.151 97.0853 904.617 96.856 903.988 96.856C903.305 96.856 902.74 97.096 902.292 97.576C901.855 98.0453 901.636 98.6373 901.636 99.352ZM913.075 100.792C913.075 100.195 913.24 99.6933 913.571 99.288C913.902 98.8827 914.339 98.5947 914.883 98.424C915.438 98.2427 915.95 98.12 916.419 98.056C916.888 97.992 917.384 97.96 917.907 97.96H918.323V97.8C918.323 96.616 917.731 96.024 916.547 96.024C915.768 96.024 915.011 96.2853 914.275 96.808L913.651 95.672C913.982 95.3947 914.43 95.1653 914.995 94.984C915.56 94.8027 916.12 94.712 916.675 94.712C917.699 94.712 918.488 94.984 919.043 95.528C919.598 96.072 919.875 96.856 919.875 97.88V103H918.419V102.184L918.467 101.544H918.435C918.19 102.024 917.827 102.419 917.347 102.728C916.878 103.037 916.355 103.192 915.779 103.192C915.043 103.192 914.408 102.973 913.875 102.536C913.342 102.099 913.075 101.517 913.075 100.792ZM914.627 100.664C914.627 101.016 914.76 101.32 915.027 101.576C915.294 101.832 915.667 101.96 916.147 101.96C916.787 101.96 917.31 101.693 917.715 101.16C918.12 100.627 918.323 100.035 918.323 99.384V99.08H917.923C915.726 99.08 914.627 99.608 914.627 100.664ZM922.169 103V94.904H923.721V98.168H924.857L927.065 94.904H928.825L926.121 98.76V98.792L929.145 103H927.305L924.889 99.496H923.721V103H922.169ZM929.778 100.792C929.778 100.195 929.943 99.6933 930.274 99.288C930.605 98.8827 931.042 98.5947 931.586 98.424C932.141 98.2427 932.653 98.12 933.122 98.056C933.591 97.992 934.087 97.96 934.61 97.96H935.026V97.8C935.026 96.616 934.434 96.024 933.25 96.024C932.471 96.024 931.714 96.2853 930.978 96.808L930.354 95.672C930.685 95.3947 931.133 95.1653 931.698 94.984C932.263 94.8027 932.823 94.712 933.378 94.712C934.402 94.712 935.191 94.984 935.746 95.528C936.301 96.072 936.578 96.856 936.578 97.88V103H935.122V102.184L935.17 101.544H935.138C934.893 102.024 934.53 102.419 934.05 102.728C933.581 103.037 933.058 103.192 932.482 103.192C931.746 103.192 931.111 102.973 930.578 102.536C930.045 102.099 929.778 101.517 929.778 100.792ZM931.33 100.664C931.33 101.016 931.463 101.32 931.73 101.576C931.997 101.832 932.37 101.96 932.85 101.96C933.49 101.96 934.013 101.693 934.418 101.16C934.823 100.627 935.026 100.035 935.026 99.384V99.08H934.626C932.429 99.08 931.33 99.608 931.33 100.664ZM940.456 101.72H944.04V96.168H941.608V96.6C941.608 98.8187 941.224 100.525 940.456 101.72ZM937.864 101.72H938.856C939.699 100.568 940.12 98.792 940.12 96.392V94.904H945.592V101.72H946.744V104.92H945.32V103H939.32V104.92H937.864V101.72ZM947.75 98.952C947.75 97.6827 948.134 96.6587 948.902 95.88C949.67 95.1013 950.641 94.712 951.814 94.712C952.913 94.712 953.771 95.0747 954.39 95.8C955.009 96.5147 955.318 97.416 955.318 98.504C955.318 98.6427 955.297 98.8613 955.254 99.16H949.366C949.409 100.003 949.691 100.664 950.214 101.144C950.747 101.613 951.393 101.848 952.15 101.848C953.035 101.848 953.83 101.533 954.534 100.904L955.19 102.04C954.806 102.392 954.326 102.675 953.75 102.888C953.185 103.091 952.619 103.192 952.054 103.192C950.795 103.192 949.761 102.792 948.95 101.992C948.15 101.181 947.75 100.168 947.75 98.952ZM949.414 98.04H953.75C953.729 97.368 953.531 96.8453 953.158 96.472C952.795 96.0987 952.337 95.912 951.782 95.912C951.174 95.912 950.651 96.104 950.214 96.488C949.787 96.8613 949.521 97.3787 949.414 98.04ZM956.848 103L957.552 94.904H959.28L961.344 99.48L961.792 100.568H961.824C961.984 100.173 962.134 99.8107 962.272 99.48L964.384 94.904H966.08L966.784 103H965.28L964.928 98.184L964.944 96.792H964.912C964.774 97.1653 964.603 97.56 964.4 97.976L962.48 102.024H961.152L959.232 97.992L958.72 96.792H958.688L958.704 98.184L958.352 103H956.848ZM968.872 103V94.904H970.36V99.736C970.36 100.301 970.344 100.664 970.312 100.824H970.344C970.397 100.696 970.637 100.333 971.064 99.736L974.552 94.904H976.056V103H974.552V98.168C974.552 98.0187 974.557 97.8107 974.568 97.544C974.589 97.2667 974.6 97.1173 974.6 97.096H974.568C974.557 97.1173 974.323 97.4747 973.864 98.168L970.36 103H968.872ZM978.434 103V94.904H979.922V99.736C979.922 100.301 979.906 100.664 979.874 100.824H979.906C979.96 100.696 980.2 100.333 980.626 99.736L984.114 94.904H985.618V103H984.114V98.168C984.114 98.0187 984.12 97.8107 984.13 97.544C984.152 97.2667 984.162 97.1173 984.162 97.096H984.13C984.12 97.1173 983.885 97.4747 983.426 98.168L979.922 103H978.434Z" fill="#050505"/>
<path d="M1028.49 103V91.704H1030.07V96.664H1035.94V91.704H1037.51V103H1035.94V98.04H1030.07V103H1028.49ZM1039.52 98.936C1039.52 97.7307 1039.94 96.728 1040.78 95.928C1041.62 95.1173 1042.65 94.712 1043.87 94.712C1045.09 94.712 1046.13 95.112 1046.97 95.912C1047.81 96.712 1048.24 97.72 1048.24 98.936C1048.24 100.152 1047.81 101.165 1046.97 101.976C1046.13 102.787 1045.1 103.192 1043.88 103.192C1042.67 103.192 1041.63 102.787 1040.78 101.976C1039.94 101.165 1039.52 100.152 1039.52 98.936ZM1041.1 98.936C1041.1 99.7787 1041.37 100.477 1041.9 101.032C1042.44 101.576 1043.11 101.848 1043.88 101.848C1044.65 101.848 1045.31 101.571 1045.85 101.016C1046.4 100.461 1046.67 99.768 1046.67 98.936C1046.67 98.104 1046.4 97.416 1045.85 96.872C1045.31 96.328 1044.65 96.056 1043.88 96.056C1043.11 96.056 1042.44 96.328 1041.9 96.872C1041.37 97.416 1041.1 98.104 1041.1 98.936ZM1050.11 103V94.904H1053.45C1054.28 94.904 1054.94 95.0853 1055.42 95.448C1055.91 95.8 1056.15 96.312 1056.15 96.984C1056.15 97.3787 1056.05 97.736 1055.85 98.056C1055.65 98.3653 1055.36 98.6 1055 98.76V98.776C1055.49 98.8933 1055.87 99.128 1056.14 99.48C1056.4 99.832 1056.54 100.237 1056.54 100.696C1056.54 101.432 1056.27 102.003 1055.72 102.408C1055.19 102.803 1054.47 103 1053.56 103H1050.11ZM1051.66 98.328H1053.18C1053.64 98.328 1053.98 98.2213 1054.22 98.008C1054.45 97.784 1054.57 97.48 1054.57 97.096C1054.57 96.3493 1054.09 95.976 1053.13 95.976H1051.66V98.328ZM1051.66 101.912H1053.32C1053.87 101.912 1054.28 101.8 1054.55 101.576C1054.83 101.352 1054.97 101.043 1054.97 100.648C1054.97 100.243 1054.83 99.928 1054.54 99.704C1054.25 99.48 1053.84 99.368 1053.31 99.368H1051.66V101.912ZM1057.89 98.936C1057.89 97.7307 1058.31 96.728 1059.15 95.928C1060 95.1173 1061.03 94.712 1062.24 94.712C1063.47 94.712 1064.5 95.112 1065.35 95.912C1066.19 96.712 1066.61 97.72 1066.61 98.936C1066.61 100.152 1066.19 101.165 1065.35 101.976C1064.5 102.787 1063.47 103.192 1062.26 103.192C1061.04 103.192 1060.01 102.787 1059.15 101.976C1058.31 101.165 1057.89 100.152 1057.89 98.936ZM1059.47 98.936C1059.47 99.7787 1059.74 100.477 1060.27 101.032C1060.82 101.576 1061.48 101.848 1062.26 101.848C1063.03 101.848 1063.68 101.571 1064.23 101.016C1064.77 100.461 1065.04 99.768 1065.04 98.936C1065.04 98.104 1064.77 97.416 1064.23 96.872C1063.68 96.328 1063.03 96.056 1062.26 96.056C1061.48 96.056 1060.82 96.328 1060.27 96.872C1059.74 97.416 1059.47 98.104 1059.47 98.936ZM1067.95 98.952C1067.95 97.7467 1068.36 96.7387 1069.17 95.928C1069.99 95.1173 1071.03 94.712 1072.29 94.712C1073.57 94.712 1074.58 95.1067 1075.33 95.896L1074.59 96.984C1073.97 96.3653 1073.23 96.056 1072.35 96.056C1071.54 96.056 1070.87 96.3333 1070.34 96.888C1069.8 97.432 1069.54 98.1147 1069.54 98.936C1069.54 99.768 1069.8 100.461 1070.34 101.016C1070.88 101.571 1071.57 101.848 1072.4 101.848C1072.85 101.848 1073.3 101.752 1073.75 101.56C1074.2 101.357 1074.59 101.091 1074.9 100.76L1075.52 101.896C1075.15 102.291 1074.67 102.605 1074.1 102.84C1073.52 103.075 1072.92 103.192 1072.29 103.192C1071.02 103.192 1069.98 102.792 1069.17 101.992C1068.36 101.192 1067.95 100.179 1067.95 98.952ZM1079.15 103V96.232H1076.34V94.904H1083.52V96.232H1080.69V103H1079.15ZM1085.04 103V94.904H1086.53V99.736C1086.53 100.301 1086.52 100.664 1086.48 100.824H1086.52C1086.57 100.696 1086.81 100.333 1087.24 99.736L1090.72 94.904H1092.23V103H1090.72V98.168C1090.72 98.0187 1090.73 97.8107 1090.74 97.544C1090.76 97.2667 1090.77 97.1173 1090.77 97.096H1090.74C1090.73 97.1173 1090.49 97.4747 1090.04 98.168L1086.53 103H1085.04Z" fill="#050505"/>
<path d="M1134.78 97.272C1134.78 95.6507 1135.34 94.2853 1136.46 93.176C1137.58 92.0667 1138.96 91.512 1140.59 91.512C1142.22 91.512 1143.59 92.0667 1144.7 93.176C1145.82 94.2853 1146.38 95.6507 1146.38 97.272C1146.38 98.936 1145.82 100.339 1144.7 101.48C1143.59 102.621 1142.22 103.192 1140.59 103.192C1138.96 103.192 1137.58 102.621 1136.46 101.48C1135.34 100.339 1134.78 98.936 1134.78 97.272ZM1136.42 97.272C1136.42 98.5307 1136.82 99.592 1137.63 100.456C1138.44 101.309 1139.43 101.736 1140.59 101.736C1141.75 101.736 1142.74 101.309 1143.54 100.456C1144.35 99.592 1144.75 98.5307 1144.75 97.272C1144.75 96.056 1144.35 95.032 1143.54 94.2C1142.74 93.368 1141.75 92.952 1140.59 92.952C1139.43 92.952 1138.44 93.368 1137.63 94.2C1136.82 95.032 1136.42 96.056 1136.42 97.272ZM1148.28 103V94.904H1155.35V103H1153.8V96.232H1149.83V103H1148.28ZM1156.87 103.08V101.688C1157.47 101.592 1157.93 101.213 1158.23 100.552C1158.54 99.88 1158.69 98.8293 1158.69 97.4V94.904H1164.11V103H1162.56V96.184H1160.18V97.4C1160.18 99.2667 1159.92 100.664 1159.39 101.592C1158.88 102.52 1158.04 103.016 1156.87 103.08ZM1165.84 100.792C1165.84 100.195 1166.01 99.6933 1166.34 99.288C1166.67 98.8827 1167.1 98.5947 1167.65 98.424C1168.2 98.2427 1168.72 98.12 1169.18 98.056C1169.65 97.992 1170.15 97.96 1170.67 97.96H1171.09V97.8C1171.09 96.616 1170.5 96.024 1169.31 96.024C1168.53 96.024 1167.78 96.2853 1167.04 96.808L1166.42 95.672C1166.75 95.3947 1167.2 95.1653 1167.76 94.984C1168.33 94.8027 1168.89 94.712 1169.44 94.712C1170.46 94.712 1171.25 94.984 1171.81 95.528C1172.36 96.072 1172.64 96.856 1172.64 97.88V103H1171.18V102.184L1171.23 101.544H1171.2C1170.96 102.024 1170.59 102.419 1170.11 102.728C1169.64 103.037 1169.12 103.192 1168.54 103.192C1167.81 103.192 1167.17 102.973 1166.64 102.536C1166.11 102.099 1165.84 101.517 1165.84 100.792ZM1167.39 100.664C1167.39 101.016 1167.53 101.32 1167.79 101.576C1168.06 101.832 1168.43 101.96 1168.91 101.96C1169.55 101.96 1170.08 101.693 1170.48 101.16C1170.89 100.627 1171.09 100.035 1171.09 99.384V99.08H1170.69C1168.49 99.08 1167.39 99.608 1167.39 100.664ZM1176.78 103V96.232H1173.96V94.904H1181.15V96.232H1178.31V103H1176.78ZM1181.92 100.792C1181.92 100.195 1182.08 99.6933 1182.41 99.288C1182.75 98.8827 1183.18 98.5947 1183.73 98.424C1184.28 98.2427 1184.79 98.12 1185.26 98.056C1185.73 97.992 1186.23 97.96 1186.75 97.96H1187.17V97.8C1187.17 96.616 1186.57 96.024 1185.39 96.024C1184.61 96.024 1183.85 96.2853 1183.12 96.808L1182.49 95.672C1182.83 95.3947 1183.27 95.1653 1183.84 94.984C1184.4 94.8027 1184.96 94.712 1185.52 94.712C1186.54 94.712 1187.33 94.984 1187.89 95.528C1188.44 96.072 1188.72 96.856 1188.72 97.88V103H1187.26V102.184L1187.31 101.544H1187.28C1187.03 102.024 1186.67 102.419 1186.19 102.728C1185.72 103.037 1185.2 103.192 1184.62 103.192C1183.89 103.192 1183.25 102.973 1182.72 102.536C1182.19 102.099 1181.92 101.517 1181.92 100.792ZM1183.47 100.664C1183.47 101.016 1183.6 101.32 1183.87 101.576C1184.14 101.832 1184.51 101.96 1184.99 101.96C1185.63 101.96 1186.15 101.693 1186.56 101.16C1186.96 100.627 1187.17 100.035 1187.17 99.384V99.08H1186.77C1184.57 99.08 1183.47 99.608 1183.47 100.664Z" fill="#050505"/>
<path d="M1231.49 103V91.704H1233.07V96.456H1234.75L1237.62 91.704H1239.36L1236.06 97.064V97.096L1239.57 103H1237.76L1234.75 97.832H1233.07V103H1231.49ZM1240.08 98.936C1240.08 97.7307 1240.5 96.728 1241.34 95.928C1242.18 95.1173 1243.21 94.712 1244.43 94.712C1245.66 94.712 1246.69 95.112 1247.53 95.912C1248.38 96.712 1248.8 97.72 1248.8 98.936C1248.8 100.152 1248.38 101.165 1247.53 101.976C1246.69 102.787 1245.66 103.192 1244.45 103.192C1243.23 103.192 1242.2 102.787 1241.34 101.976C1240.5 101.165 1240.08 100.152 1240.08 98.936ZM1241.66 98.936C1241.66 99.7787 1241.93 100.477 1242.46 101.032C1243.01 101.576 1243.67 101.848 1244.45 101.848C1245.21 101.848 1245.87 101.571 1246.41 101.016C1246.96 100.461 1247.23 99.768 1247.23 98.936C1247.23 98.104 1246.96 97.416 1246.41 96.872C1245.87 96.328 1245.21 96.056 1244.45 96.056C1243.67 96.056 1243.01 96.328 1242.46 96.872C1241.93 97.416 1241.66 98.104 1241.66 98.936ZM1250.67 103V94.904H1252.22V98.2H1256.32V94.904H1257.87V103H1256.32V99.528H1252.22V103H1250.67ZM1262.21 103V96.232H1259.4V94.904H1266.58V96.232H1263.75V103H1262.21ZM1267.36 100.792C1267.36 100.195 1267.52 99.6933 1267.85 99.288C1268.18 98.8827 1268.62 98.5947 1269.16 98.424C1269.72 98.2427 1270.23 98.12 1270.7 98.056C1271.17 97.992 1271.67 97.96 1272.19 97.96H1272.6V97.8C1272.6 96.616 1272.01 96.024 1270.83 96.024C1270.05 96.024 1269.29 96.2853 1268.56 96.808L1267.93 95.672C1268.26 95.3947 1268.71 95.1653 1269.28 94.984C1269.84 94.8027 1270.4 94.712 1270.96 94.712C1271.98 94.712 1272.77 94.984 1273.32 95.528C1273.88 96.072 1274.16 96.856 1274.16 97.88V103H1272.7V102.184L1272.75 101.544H1272.72C1272.47 102.024 1272.11 102.419 1271.63 102.728C1271.16 103.037 1270.64 103.192 1270.06 103.192C1269.32 103.192 1268.69 102.973 1268.16 102.536C1267.62 102.099 1267.36 101.517 1267.36 100.792ZM1268.91 100.664C1268.91 101.016 1269.04 101.32 1269.31 101.576C1269.57 101.832 1269.95 101.96 1270.43 101.96C1271.07 101.96 1271.59 101.693 1272 101.16C1272.4 100.627 1272.6 100.035 1272.6 99.384V99.08H1272.2C1270.01 99.08 1268.91 99.608 1268.91 100.664ZM1276.45 103V94.904H1278V98.168H1279.14L1281.35 94.904H1283.11L1280.4 98.76V98.792L1283.43 103H1281.59L1279.17 99.496H1278V103H1276.45ZM1286.76 103V96.232H1283.95V94.904H1291.13V96.232H1288.3V103H1286.76ZM1299.98 103V94.904H1301.53V103H1299.98ZM1292.65 103V94.904H1294.21V97.832H1295.79C1296.69 97.832 1297.4 98.0507 1297.93 98.488C1298.47 98.9147 1298.73 99.5653 1298.73 100.44C1298.73 101.229 1298.48 101.853 1297.98 102.312C1297.49 102.771 1296.75 103 1295.77 103H1292.65ZM1294.21 101.88H1295.57C1296.1 101.88 1296.5 101.752 1296.77 101.496C1297.03 101.229 1297.17 100.872 1297.17 100.424C1297.17 99.976 1297.03 99.6187 1296.77 99.352C1296.5 99.0853 1296.09 98.952 1295.55 98.952H1294.21V101.88Z" fill="#050505"/>
<g clip-path="url(#clip0_200_248)">
<path d="M419.511 73.661C420.305 72.7744 421.694 72.7744 422.489 73.661L441.792 95.1913C441.956 95.3747 442.047 95.6124 442.047 95.8588V120.716C442.047 121.588 441.01 122.042 440.369 121.451L421.678 104.198C421.295 103.844 420.705 103.844 420.321 104.198L401.63 121.451C400.99 122.042 399.952 121.588 399.952 120.716V95.8588C399.952 95.6124 400.043 95.3747 400.208 95.1913L419.511 73.661Z" fill="#FD3C76"/>
<mask id="mask0_200_248" style="mask-type:alpha" maskUnits="userSpaceOnUse" x="399" y="72" width="44" height="50">
<path d="M419.511 73.661C420.305 72.7744 421.694 72.7744 422.489 73.661L441.792 95.1913C441.956 95.3747 442.047 95.6124 442.047 95.8588V120.716C442.047 121.588 441.01 122.042 440.369 121.451L421.678 104.198C421.295 103.844 420.705 103.844 420.321 104.198L401.63 121.451C400.99 122.042 399.952 121.588 399.952 120.716V95.8588C399.952 95.6124 400.043 95.3747 400.208 95.1913L419.511 73.661Z" fill="#FD3C76"/>
</mask>
<g mask="url(#mask0_200_248)">
<path d="M421 72V103.571L442.048 123V95.4762L421 72Z" fill="#E92862"/>
</g>
<path d="M398.199 78.0584C398.806 77.3619 399.952 77.7915 399.952 78.7157V95.4513C399.952 95.6818 399.873 95.9053 399.727 96.0838L388.775 109.494C388.18 110.222 387 109.802 387 108.861V91.2742C387 91.0325 387.088 90.799 387.246 90.6169L398.199 78.0584Z" fill="#215FFF"/>
<path d="M443.801 78.0584C443.194 77.3619 442.048 77.7915 442.048 78.7157V95.4513C442.048 95.6818 442.127 95.9053 442.273 96.0838L453.225 109.494C453.82 110.222 455 109.802 455 108.861V91.2742C455 91.0325 454.912 90.799 454.754 90.6169L443.801 78.0584Z" fill="#215FFF"/>
</g>
<path d="M387.6 24.716C387.6 23.476 388.004 22.444 388.812 21.62C389.628 20.796 390.66 20.384 391.908 20.384C393.196 20.384 394.228 20.756 395.004 21.5L394.404 22.388C394.092 22.108 393.712 21.884 393.264 21.716C392.824 21.548 392.388 21.464 391.956 21.464C390.996 21.464 390.232 21.772 389.664 22.388C389.104 23.004 388.824 23.776 388.824 24.704C388.824 25.64 389.112 26.432 389.688 27.08C390.264 27.728 391.028 28.052 391.98 28.052C392.452 28.052 392.916 27.956 393.372 27.764C393.836 27.564 394.24 27.292 394.584 26.948L395.22 27.8C394.324 28.696 393.232 29.144 391.944 29.144C390.656 29.144 389.608 28.724 388.8 27.884C388 27.036 387.6 25.98 387.6 24.716ZM396.443 29V22.928H398.951C399.575 22.928 400.067 23.064 400.427 23.336C400.795 23.6 400.979 23.984 400.979 24.488C400.979 24.784 400.903 25.052 400.751 25.292C400.599 25.524 400.387 25.7 400.115 25.82V25.832C400.483 25.92 400.767 26.096 400.967 26.36C401.167 26.624 401.267 26.928 401.267 27.272C401.267 27.824 401.063 28.252 400.655 28.556C400.255 28.852 399.715 29 399.035 29H396.443ZM397.607 25.496H398.747C399.091 25.496 399.351 25.416 399.527 25.256C399.703 25.088 399.791 24.86 399.791 24.572C399.791 24.012 399.431 23.732 398.711 23.732H397.607V25.496ZM397.607 28.184H398.855C399.263 28.184 399.571 28.1 399.779 27.932C399.987 27.764 400.091 27.532 400.091 27.236C400.091 26.932 399.983 26.696 399.767 26.528C399.551 26.36 399.243 26.276 398.843 26.276H397.607V28.184ZM402.281 25.964C402.281 25.012 402.569 24.244 403.145 23.66C403.721 23.076 404.449 22.784 405.329 22.784C406.153 22.784 406.797 23.056 407.261 23.6C407.725 24.136 407.957 24.812 407.957 25.628C407.957 25.732 407.941 25.896 407.909 26.12H403.493C403.525 26.752 403.737 27.248 404.129 27.608C404.529 27.96 405.013 28.136 405.581 28.136C406.245 28.136 406.841 27.9 407.369 27.428L407.861 28.28C407.573 28.544 407.213 28.756 406.781 28.916C406.357 29.068 405.933 29.144 405.509 29.144C404.565 29.144 403.789 28.844 403.181 28.244C402.581 27.636 402.281 26.876 402.281 25.964ZM403.529 25.28H406.781C406.765 24.776 406.617 24.384 406.337 24.104C406.065 23.824 405.721 23.684 405.305 23.684C404.849 23.684 404.457 23.828 404.129 24.116C403.809 24.396 403.609 24.784 403.529 25.28ZM410.545 28.04H413.233V23.876H411.409V24.2C411.409 25.864 411.121 27.144 410.545 28.04ZM408.601 28.04H409.345C409.977 27.176 410.293 25.844 410.293 24.044V22.928H414.397V28.04H415.261V30.44H414.193V29H409.693V30.44H408.601V28.04ZM416.016 25.964C416.016 25.012 416.304 24.244 416.88 23.66C417.456 23.076 418.184 22.784 419.064 22.784C419.888 22.784 420.532 23.056 420.996 23.6C421.46 24.136 421.692 24.812 421.692 25.628C421.692 25.732 421.676 25.896 421.644 26.12H417.228C417.26 26.752 417.472 27.248 417.864 27.608C418.264 27.96 418.748 28.136 419.316 28.136C419.98 28.136 420.576 27.9 421.104 27.428L421.596 28.28C421.308 28.544 420.948 28.756 420.516 28.916C420.092 29.068 419.668 29.144 419.244 29.144C418.3 29.144 417.524 28.844 416.916 28.244C416.316 27.636 416.016 26.876 416.016 25.964ZM417.264 25.28H420.516C420.5 24.776 420.352 24.384 420.072 24.104C419.8 23.824 419.456 23.684 419.04 23.684C418.584 23.684 418.192 23.828 417.864 24.116C417.544 24.396 417.344 24.784 417.264 25.28ZM423.091 29V22.928H424.255V25.4H427.327V22.928H428.491V29H427.327V26.396H424.255V29H423.091ZM430.287 29V22.928H431.403V26.552C431.403 26.976 431.391 27.248 431.367 27.368H431.391C431.431 27.272 431.611 27 431.931 26.552L434.547 22.928H435.675V29H434.547V25.376C434.547 25.264 434.551 25.108 434.559 24.908C434.575 24.7 434.583 24.588 434.583 24.572H434.559C434.551 24.588 434.375 24.856 434.031 25.376L431.403 29H430.287ZM436.847 29L438.251 26.984L438.527 26.612V26.6C438.159 26.496 437.847 26.288 437.591 25.976C437.335 25.656 437.207 25.276 437.207 24.836C437.207 24.228 437.403 23.76 437.795 23.432C438.195 23.096 438.723 22.928 439.379 22.928H441.803V29H440.639V26.804H439.619L438.131 29H436.847ZM439.631 25.952H440.639V23.732H439.667C438.811 23.732 438.383 24.096 438.383 24.824C438.383 25.192 438.499 25.472 438.731 25.664C438.963 25.856 439.263 25.952 439.631 25.952ZM446.203 25.952C446.203 25.048 446.519 24.296 447.151 23.696C447.783 23.088 448.555 22.784 449.467 22.784C450.387 22.784 451.163 23.084 451.795 23.684C452.427 24.284 452.743 25.04 452.743 25.952C452.743 26.864 452.427 27.624 451.795 28.232C451.163 28.84 450.391 29.144 449.479 29.144C448.567 29.144 447.791 28.84 447.151 28.232C446.519 27.624 446.203 26.864 446.203 25.952ZM447.391 25.952C447.391 26.584 447.591 27.108 447.991 27.524C448.399 27.932 448.895 28.136 449.479 28.136C450.055 28.136 450.547 27.928 450.955 27.512C451.363 27.096 451.567 26.576 451.567 25.952C451.567 25.328 451.363 24.812 450.955 24.404C450.547 23.996 450.055 23.792 449.479 23.792C448.895 23.792 448.399 23.996 447.991 24.404C447.591 24.812 447.391 25.328 447.391 25.952ZM453.882 25.508C453.882 24.38 454.082 23.476 454.482 22.796C454.882 22.116 455.594 21.56 456.618 21.128L458.79 20.192L459.174 21.152L456.846 22.124C456.238 22.404 455.782 22.736 455.478 23.12C455.182 23.496 455.014 23.972 454.974 24.548H454.998C455.478 23.828 456.194 23.468 457.146 23.468C457.914 23.468 458.534 23.724 459.006 24.236C459.486 24.74 459.726 25.416 459.726 26.264C459.726 27.112 459.462 27.804 458.934 28.34C458.406 28.876 457.714 29.144 456.858 29.144C455.874 29.144 455.13 28.816 454.626 28.16C454.13 27.496 453.882 26.612 453.882 25.508ZM455.094 26.264C455.094 26.848 455.258 27.312 455.586 27.656C455.914 27.992 456.322 28.16 456.81 28.16C457.306 28.16 457.718 27.992 458.046 27.656C458.382 27.312 458.55 26.856 458.55 26.288C458.55 25.712 458.386 25.252 458.058 24.908C457.73 24.564 457.33 24.392 456.858 24.392C456.346 24.392 455.922 24.572 455.586 24.932C455.258 25.284 455.094 25.728 455.094 26.264ZM463.781 25.952C463.781 25.048 464.097 24.296 464.729 23.696C465.361 23.088 466.133 22.784 467.045 22.784C467.965 22.784 468.741 23.084 469.373 23.684C470.005 24.284 470.321 25.04 470.321 25.952C470.321 26.864 470.005 27.624 469.373 28.232C468.741 28.84 467.969 29.144 467.057 29.144C466.145 29.144 465.369 28.84 464.729 28.232C464.097 27.624 463.781 26.864 463.781 25.952ZM464.969 25.952C464.969 26.584 465.169 27.108 465.569 27.524C465.977 27.932 466.473 28.136 467.057 28.136C467.633 28.136 468.125 27.928 468.533 27.512C468.941 27.096 469.145 26.576 469.145 25.952C469.145 25.328 468.941 24.812 468.533 24.404C468.125 23.996 467.633 23.792 467.057 23.792C466.473 23.792 465.977 23.996 465.569 24.404C465.169 24.812 464.969 25.328 464.969 25.952ZM471.46 25.508C471.46 24.38 471.66 23.476 472.06 22.796C472.46 22.116 473.172 21.56 474.196 21.128L476.368 20.192L476.752 21.152L474.424 22.124C473.816 22.404 473.36 22.736 473.056 23.12C472.76 23.496 472.592 23.972 472.552 24.548H472.576C473.056 23.828 473.772 23.468 474.724 23.468C475.492 23.468 476.112 23.724 476.584 24.236C477.064 24.74 477.304 25.416 477.304 26.264C477.304 27.112 477.04 27.804 476.512 28.34C475.984 28.876 475.292 29.144 474.436 29.144C473.452 29.144 472.708 28.816 472.204 28.16C471.708 27.496 471.46 26.612 471.46 25.508ZM472.672 26.264C472.672 26.848 472.836 27.312 473.164 27.656C473.492 27.992 473.9 28.16 474.388 28.16C474.884 28.16 475.296 27.992 475.624 27.656C475.96 27.312 476.128 26.856 476.128 26.288C476.128 25.712 475.964 25.252 475.636 24.908C475.308 24.564 474.908 24.392 474.436 24.392C473.924 24.392 473.5 24.572 473.164 24.932C472.836 25.284 472.672 25.728 472.672 26.264ZM478.755 31.4V22.928H479.835V23.468L479.799 23.924H479.823C480.015 23.564 480.291 23.284 480.651 23.084C481.011 22.884 481.415 22.784 481.863 22.784C482.679 22.784 483.327 23.076 483.807 23.66C484.287 24.244 484.527 25.012 484.527 25.964C484.527 26.924 484.271 27.696 483.759 28.28C483.247 28.856 482.587 29.144 481.779 29.144C480.971 29.144 480.343 28.8 479.895 28.112H479.871C479.903 28.256 479.919 28.432 479.919 28.64V31.4H478.755ZM479.883 25.988C479.883 26.564 480.035 27.068 480.339 27.5C480.651 27.924 481.071 28.136 481.599 28.136C482.095 28.136 482.511 27.944 482.847 27.56C483.183 27.168 483.351 26.64 483.351 25.976C483.351 25.32 483.191 24.796 482.871 24.404C482.559 24.004 482.147 23.804 481.635 23.804C481.139 23.804 480.723 23.988 480.387 24.356C480.051 24.724 479.883 25.268 479.883 25.988ZM485.903 29V27.74H487.151V29H485.903ZM491.496 25.952C491.496 25.048 491.812 24.296 492.444 23.696C493.076 23.088 493.848 22.784 494.76 22.784C495.68 22.784 496.456 23.084 497.088 23.684C497.72 24.284 498.036 25.04 498.036 25.952C498.036 26.864 497.72 27.624 497.088 28.232C496.456 28.84 495.684 29.144 494.772 29.144C493.86 29.144 493.084 28.84 492.444 28.232C491.812 27.624 491.496 26.864 491.496 25.952ZM492.684 25.952C492.684 26.584 492.884 27.108 493.284 27.524C493.692 27.932 494.188 28.136 494.772 28.136C495.348 28.136 495.84 27.928 496.248 27.512C496.656 27.096 496.86 26.576 496.86 25.952C496.86 25.328 496.656 24.812 496.248 24.404C495.84 23.996 495.348 23.792 494.772 23.792C494.188 23.792 493.692 23.996 493.284 24.404C492.884 24.812 492.684 25.328 492.684 25.952ZM499.439 31.4V22.928H500.519V23.468L500.483 23.924H500.507C500.699 23.564 500.975 23.284 501.335 23.084C501.695 22.884 502.099 22.784 502.547 22.784C503.363 22.784 504.011 23.076 504.491 23.66C504.971 24.244 505.211 25.012 505.211 25.964C505.211 26.924 504.955 27.696 504.443 28.28C503.931 28.856 503.271 29.144 502.463 29.144C501.655 29.144 501.027 28.8 500.579 28.112H500.555C500.587 28.256 500.603 28.432 500.603 28.64V31.4H499.439ZM500.567 25.988C500.567 26.564 500.719 27.068 501.023 27.5C501.335 27.924 501.755 28.136 502.283 28.136C502.779 28.136 503.195 27.944 503.531 27.56C503.867 27.168 504.035 26.64 504.035 25.976C504.035 25.32 503.875 24.796 503.555 24.404C503.243 24.004 502.831 23.804 502.319 23.804C501.823 23.804 501.407 23.988 501.071 24.356C500.735 24.724 500.567 25.268 500.567 25.988ZM506.646 29V22.928H510.45V23.924H507.81V29H506.646ZM511.029 27.344C511.029 26.896 511.153 26.52 511.401 26.216C511.649 25.912 511.977 25.696 512.385 25.568C512.801 25.432 513.185 25.34 513.537 25.292C513.889 25.244 514.261 25.22 514.653 25.22H514.965V25.1C514.965 24.212 514.521 23.768 513.633 23.768C513.049 23.768 512.481 23.964 511.929 24.356L511.461 23.504C511.709 23.296 512.045 23.124 512.469 22.988C512.893 22.852 513.313 22.784 513.729 22.784C514.497 22.784 515.089 22.988 515.505 23.396C515.921 23.804 516.129 24.392 516.129 25.16V29H515.037V28.388L515.073 27.908H515.049C514.865 28.268 514.593 28.564 514.233 28.796C513.881 29.028 513.489 29.144 513.057 29.144C512.505 29.144 512.029 28.98 511.629 28.652C511.229 28.324 511.029 27.888 511.029 27.344ZM512.193 27.248C512.193 27.512 512.293 27.74 512.493 27.932C512.693 28.124 512.973 28.22 513.333 28.22C513.813 28.22 514.205 28.02 514.509 27.62C514.813 27.22 514.965 26.776 514.965 26.288V26.06H514.665C513.017 26.06 512.193 26.456 512.193 27.248ZM517.849 29V22.928H519.013V25.4H522.085V22.928H523.249V29H522.085V26.396H519.013V29H517.849ZM525.045 29V22.928H526.161V26.552C526.161 26.976 526.149 27.248 526.125 27.368H526.149C526.189 27.272 526.369 27 526.689 26.552L529.305 22.928H530.433V29H529.305V25.376C529.305 25.264 529.309 25.108 529.317 24.908C529.333 24.7 529.341 24.588 529.341 24.572H529.317C529.309 24.588 529.133 24.856 528.789 25.376L526.161 29H525.045ZM531.628 28.256L532.168 27.488C532.624 27.968 533.152 28.208 533.752 28.208C534.12 28.208 534.42 28.124 534.652 27.956C534.892 27.78 535.012 27.532 535.012 27.212C535.012 26.596 534.596 26.288 533.764 26.288H533.02V25.448H533.656C534.424 25.448 534.808 25.156 534.808 24.572C534.808 24.292 534.712 24.076 534.52 23.924C534.328 23.772 534.064 23.696 533.728 23.696C533.216 23.696 532.724 23.872 532.252 24.224L531.82 23.444C532.412 23.004 533.116 22.784 533.932 22.784C534.532 22.784 535.024 22.928 535.408 23.216C535.792 23.504 535.984 23.908 535.984 24.428C535.984 25.1 535.688 25.56 535.096 25.808V25.832C535.824 26.064 536.188 26.54 536.188 27.26C536.188 27.86 535.964 28.324 535.516 28.652C535.076 28.98 534.524 29.144 533.86 29.144C532.996 29.144 532.252 28.848 531.628 28.256ZM537.091 27.344C537.091 26.896 537.215 26.52 537.463 26.216C537.711 25.912 538.039 25.696 538.447 25.568C538.863 25.432 539.247 25.34 539.599 25.292C539.951 25.244 540.323 25.22 540.715 25.22H541.027V25.1C541.027 24.212 540.583 23.768 539.695 23.768C539.111 23.768 538.543 23.964 537.991 24.356L537.523 23.504C537.771 23.296 538.107 23.124 538.531 22.988C538.955 22.852 539.375 22.784 539.791 22.784C540.559 22.784 541.151 22.988 541.567 23.396C541.983 23.804 542.191 24.392 542.191 25.16V29H541.099V28.388L541.135 27.908H541.111C540.927 28.268 540.655 28.564 540.295 28.796C539.943 29.028 539.551 29.144 539.119 29.144C538.567 29.144 538.091 28.98 537.691 28.652C537.291 28.324 537.091 27.888 537.091 27.344ZM538.255 27.248C538.255 27.512 538.355 27.74 538.555 27.932C538.755 28.124 539.035 28.22 539.395 28.22C539.875 28.22 540.267 28.02 540.571 27.62C540.875 27.22 541.027 26.776 541.027 26.288V26.06H540.727C539.079 26.06 538.255 26.456 538.255 27.248ZM543.912 29V22.928H545.076V27.992H547.968V22.928H549.144V27.992H549.996V30.44H548.928V29H543.912ZM551.236 29V22.928H552.352V26.552C552.352 26.976 552.34 27.248 552.316 27.368H552.34C552.38 27.272 552.56 27 552.88 26.552L555.496 22.928H556.624V29H555.496V25.376C555.496 25.264 555.5 25.108 555.508 24.908C555.524 24.7 555.532 24.588 555.532 24.572H555.508C555.5 24.588 555.324 24.856 554.98 25.376L552.352 29H551.236ZM558.408 29V22.928H559.524V26.552C559.524 26.976 559.512 27.248 559.488 27.368H559.512C559.552 27.272 559.732 27 560.052 26.552L562.668 22.928H563.796V29H562.668V25.376C562.668 25.264 562.672 25.108 562.68 24.908C562.696 24.7 562.704 24.588 562.704 24.572H562.68C562.672 24.588 562.496 24.856 562.152 25.376L559.524 29H558.408Z" fill="#262626"/>
<path d="M605.792 29L606.488 20.528H607.724L609.68 25.112L610.088 26.252H610.112C610.264 25.804 610.404 25.424 610.532 25.112L612.488 20.528H613.724L614.408 29H613.232L612.824 23.66L612.8 22.412H612.776C612.6 22.932 612.448 23.348 612.32 23.66L610.628 27.476H609.572L607.892 23.66L607.436 22.388H607.412C607.428 22.892 607.42 23.316 607.388 23.66L606.98 29H605.792ZM615.617 25.964C615.617 25.012 615.905 24.244 616.481 23.66C617.057 23.076 617.785 22.784 618.665 22.784C619.489 22.784 620.133 23.056 620.597 23.6C621.061 24.136 621.293 24.812 621.293 25.628C621.293 25.732 621.277 25.896 621.245 26.12H616.829C616.861 26.752 617.073 27.248 617.465 27.608C617.865 27.96 618.349 28.136 618.917 28.136C619.581 28.136 620.177 27.9 620.705 27.428L621.197 28.28C620.909 28.544 620.549 28.756 620.117 28.916C619.693 29.068 619.269 29.144 618.845 29.144C617.901 29.144 617.125 28.844 616.517 28.244C615.917 27.636 615.617 26.876 615.617 25.964ZM616.865 25.28H620.117C620.101 24.776 619.953 24.384 619.673 24.104C619.401 23.824 619.057 23.684 618.641 23.684C618.185 23.684 617.793 23.828 617.465 24.116C617.145 24.396 616.945 24.784 616.865 25.28ZM624.087 29V23.924H621.975V22.928H627.363V23.924H625.239V29H624.087ZM627.91 25.952C627.91 25.048 628.226 24.296 628.858 23.696C629.49 23.088 630.262 22.784 631.174 22.784C632.094 22.784 632.87 23.084 633.502 23.684C634.134 24.284 634.45 25.04 634.45 25.952C634.45 26.864 634.134 27.624 633.502 28.232C632.87 28.84 632.098 29.144 631.186 29.144C630.274 29.144 629.498 28.84 628.858 28.232C628.226 27.624 627.91 26.864 627.91 25.952ZM629.098 25.952C629.098 26.584 629.298 27.108 629.698 27.524C630.106 27.932 630.602 28.136 631.186 28.136C631.762 28.136 632.254 27.928 632.662 27.512C633.07 27.096 633.274 26.576 633.274 25.952C633.274 25.328 633.07 24.812 632.662 24.404C632.254 23.996 631.762 23.792 631.186 23.792C630.602 23.792 630.106 23.996 629.698 24.404C629.298 24.812 629.098 25.328 629.098 25.952ZM636.889 28.04H639.577V23.876H637.753V24.2C637.753 25.864 637.465 27.144 636.889 28.04ZM634.945 28.04H635.689C636.321 27.176 636.637 25.844 636.637 24.044V22.928H640.741V28.04H641.605V30.44H640.537V29H636.037V30.44H634.945V28.04ZM642.826 29V22.928H643.942V26.552C643.942 26.976 643.93 27.248 643.906 27.368H643.93C643.97 27.272 644.15 27 644.47 26.552L647.086 22.928H648.214V29H647.086V25.376C647.086 25.264 647.09 25.108 647.098 24.908C647.114 24.7 647.122 24.588 647.122 24.572H647.098C647.09 24.588 646.914 24.856 646.57 25.376L643.942 29H642.826ZM651.654 26.888C650.998 26.888 650.494 26.72 650.142 26.384C649.79 26.04 649.614 25.548 649.614 24.908V22.928H650.754V24.74C650.754 25.084 650.842 25.36 651.018 25.568C651.194 25.776 651.51 25.88 651.966 25.88C652.462 25.88 652.91 25.736 653.31 25.448V22.928H654.474V29H653.31V26.804L653.322 26.444H653.298C652.826 26.74 652.278 26.888 651.654 26.888ZM655.883 25.964C655.883 25.012 656.171 24.244 656.747 23.66C657.323 23.076 658.051 22.784 658.931 22.784C659.755 22.784 660.399 23.056 660.863 23.6C661.327 24.136 661.559 24.812 661.559 25.628C661.559 25.732 661.543 25.896 661.511 26.12H657.095C657.127 26.752 657.339 27.248 657.731 27.608C658.131 27.96 658.615 28.136 659.183 28.136C659.847 28.136 660.443 27.9 660.971 27.428L661.463 28.28C661.175 28.544 660.815 28.756 660.383 28.916C659.959 29.068 659.535 29.144 659.111 29.144C658.167 29.144 657.391 28.844 656.783 28.244C656.183 27.636 655.883 26.876 655.883 25.964ZM657.131 25.28H660.383C660.367 24.776 660.219 24.384 659.939 24.104C659.667 23.824 659.323 23.684 658.907 23.684C658.451 23.684 658.059 23.828 657.731 24.116C657.411 24.396 657.211 24.784 657.131 25.28ZM662.563 25.964C662.563 25.06 662.867 24.304 663.475 23.696C664.091 23.088 664.871 22.784 665.815 22.784C666.775 22.784 667.535 23.08 668.095 23.672L667.543 24.488C667.079 24.024 666.519 23.792 665.863 23.792C665.255 23.792 664.751 24 664.351 24.416C663.951 24.824 663.751 25.336 663.751 25.952C663.751 26.576 663.951 27.096 664.351 27.512C664.759 27.928 665.275 28.136 665.899 28.136C666.235 28.136 666.571 28.064 666.907 27.92C667.251 27.768 667.539 27.568 667.771 27.32L668.239 28.172C667.959 28.468 667.603 28.704 667.171 28.88C666.739 29.056 666.287 29.144 665.815 29.144C664.863 29.144 664.083 28.844 663.475 28.244C662.867 27.644 662.563 26.884 662.563 25.964ZM669.498 29V22.928H670.662V25.376H671.514L673.17 22.928H674.49L672.462 25.82V25.844L674.73 29H673.35L671.538 26.372H670.662V29H669.498ZM675.767 29V22.928H676.883V26.552C676.883 26.976 676.871 27.248 676.847 27.368H676.871C676.911 27.272 677.091 27 677.411 26.552L680.027 22.928H681.155V29H680.027V25.376C680.027 25.264 680.031 25.108 680.039 24.908C680.055 24.7 680.063 24.588 680.063 24.572H680.039C680.031 24.588 679.855 24.856 679.511 25.376L676.883 29H675.767ZM682.543 25.964C682.543 25.012 682.831 24.244 683.407 23.66C683.983 23.076 684.711 22.784 685.591 22.784C686.415 22.784 687.059 23.056 687.523 23.6C687.987 24.136 688.219 24.812 688.219 25.628C688.219 25.732 688.203 25.896 688.171 26.12H683.755C683.787 26.752 683.999 27.248 684.391 27.608C684.791 27.96 685.275 28.136 685.843 28.136C686.507 28.136 687.103 27.9 687.631 27.428L688.123 28.28C687.835 28.544 687.475 28.756 687.043 28.916C686.619 29.068 686.195 29.144 685.771 29.144C684.827 29.144 684.051 28.844 683.443 28.244C682.843 27.636 682.543 26.876 682.543 25.964ZM683.791 25.28H687.043C687.027 24.776 686.879 24.384 686.599 24.104C686.327 23.824 685.983 23.684 685.567 23.684C685.111 23.684 684.719 23.828 684.391 24.116C684.071 24.396 683.871 24.784 683.791 25.28ZM692.367 29L692.895 22.928H694.191L695.739 26.36L696.075 27.176H696.099C696.219 26.88 696.331 26.608 696.435 26.36L698.019 22.928H699.291L699.819 29H698.691L698.427 25.388L698.439 24.344H698.415C698.311 24.624 698.183 24.92 698.031 25.232L696.591 28.268H695.595L694.155 25.244L693.771 24.344H693.747L693.759 25.388L693.495 29H692.367ZM700.88 27.344C700.88 26.896 701.004 26.52 701.252 26.216C701.5 25.912 701.828 25.696 702.236 25.568C702.652 25.432 703.036 25.34 703.388 25.292C703.74 25.244 704.112 25.22 704.504 25.22H704.816V25.1C704.816 24.212 704.372 23.768 703.484 23.768C702.9 23.768 702.332 23.964 701.78 24.356L701.312 23.504C701.56 23.296 701.896 23.124 702.32 22.988C702.744 22.852 703.164 22.784 703.58 22.784C704.348 22.784 704.94 22.988 705.356 23.396C705.772 23.804 705.98 24.392 705.98 25.16V29H704.888V28.388L704.924 27.908H704.9C704.716 28.268 704.444 28.564 704.084 28.796C703.732 29.028 703.34 29.144 702.908 29.144C702.356 29.144 701.88 28.98 701.48 28.652C701.08 28.324 700.88 27.888 700.88 27.344ZM702.044 27.248C702.044 27.512 702.144 27.74 702.344 27.932C702.544 28.124 702.824 28.22 703.184 28.22C703.664 28.22 704.056 28.02 704.36 27.62C704.664 27.22 704.816 26.776 704.816 26.288V26.06H704.516C702.868 26.06 702.044 26.456 702.044 27.248ZM709.083 29V23.924H706.971V22.928H712.359V23.924H710.235V29H709.083ZM712.906 25.964C712.906 25.012 713.194 24.244 713.77 23.66C714.346 23.076 715.074 22.784 715.954 22.784C716.778 22.784 717.422 23.056 717.886 23.6C718.35 24.136 718.582 24.812 718.582 25.628C718.582 25.732 718.566 25.896 718.534 26.12H714.118C714.15 26.752 714.362 27.248 714.754 27.608C715.154 27.96 715.638 28.136 716.206 28.136C716.87 28.136 717.466 27.9 717.994 27.428L718.486 28.28C718.198 28.544 717.838 28.756 717.406 28.916C716.982 29.068 716.558 29.144 716.134 29.144C715.19 29.144 714.414 28.844 713.806 28.244C713.206 27.636 712.906 26.876 712.906 25.964ZM714.154 25.28H717.406C717.39 24.776 717.242 24.384 716.962 24.104C716.69 23.824 716.346 23.684 715.93 23.684C715.474 23.684 715.082 23.828 714.754 24.116C714.434 24.396 714.234 24.784 714.154 25.28ZM719.982 31.4V22.928H721.062V23.468L721.026 23.924H721.05C721.242 23.564 721.518 23.284 721.878 23.084C722.238 22.884 722.642 22.784 723.09 22.784C723.906 22.784 724.554 23.076 725.034 23.66C725.514 24.244 725.754 25.012 725.754 25.964C725.754 26.924 725.498 27.696 724.986 28.28C724.474 28.856 723.814 29.144 723.006 29.144C722.198 29.144 721.57 28.8 721.122 28.112H721.098C721.13 28.256 721.146 28.432 721.146 28.64V31.4H719.982ZM721.11 25.988C721.11 26.564 721.262 27.068 721.566 27.5C721.878 27.924 722.298 28.136 722.826 28.136C723.322 28.136 723.738 27.944 724.074 27.56C724.41 27.168 724.578 26.64 724.578 25.976C724.578 25.32 724.418 24.796 724.098 24.404C723.786 24.004 723.374 23.804 722.862 23.804C722.366 23.804 721.95 23.988 721.614 24.356C721.278 24.724 721.11 25.268 721.11 25.988ZM727.189 29V22.928H728.305V26.552C728.305 26.976 728.293 27.248 728.269 27.368H728.293C728.333 27.272 728.513 27 728.833 26.552L731.449 22.928H732.577V29H731.449V25.376C731.449 25.264 731.453 25.108 731.461 24.908C731.477 24.7 731.485 24.588 731.485 24.572H731.461C731.453 24.588 731.277 24.856 730.933 25.376L728.305 29H727.189ZM733.857 27.344C733.857 26.896 733.981 26.52 734.229 26.216C734.477 25.912 734.805 25.696 735.213 25.568C735.629 25.432 736.013 25.34 736.365 25.292C736.717 25.244 737.089 25.22 737.481 25.22H737.793V25.1C737.793 24.212 737.349 23.768 736.461 23.768C735.877 23.768 735.309 23.964 734.757 24.356L734.289 23.504C734.537 23.296 734.873 23.124 735.297 22.988C735.721 22.852 736.141 22.784 736.557 22.784C737.325 22.784 737.917 22.988 738.333 23.396C738.749 23.804 738.957 24.392 738.957 25.16V29H737.865V28.388L737.901 27.908H737.877C737.693 28.268 737.421 28.564 737.061 28.796C736.709 29.028 736.317 29.144 735.885 29.144C735.333 29.144 734.857 28.98 734.457 28.652C734.057 28.324 733.857 27.888 733.857 27.344ZM735.021 27.248C735.021 27.512 735.121 27.74 735.321 27.932C735.521 28.124 735.801 28.22 736.161 28.22C736.641 28.22 737.033 28.02 737.337 27.62C737.641 27.22 737.793 26.776 737.793 26.288V26.06H737.493C735.845 26.06 735.021 26.456 735.021 27.248ZM740.017 29.06V28.016C740.473 27.944 740.813 27.66 741.037 27.164C741.269 26.66 741.385 25.872 741.385 24.8V22.928H745.453V29H744.289V23.888H742.501V24.8C742.501 26.2 742.305 27.248 741.913 27.944C741.529 28.64 740.897 29.012 740.017 29.06ZM752.748 29V22.928H753.912V29H752.748ZM747.252 29V22.928H748.416V25.124H749.604C750.276 25.124 750.812 25.288 751.212 25.616C751.612 25.936 751.812 26.424 751.812 27.08C751.812 27.672 751.624 28.14 751.248 28.484C750.88 28.828 750.328 29 749.592 29H747.252ZM748.416 28.16H749.436C749.836 28.16 750.136 28.064 750.336 27.872C750.536 27.672 750.636 27.404 750.636 27.068C750.636 26.732 750.536 26.464 750.336 26.264C750.136 26.064 749.832 25.964 749.424 25.964H748.416V28.16Z" fill="#262626"/>
<path d="M796.116 29V20.528H799.08C799.816 20.528 800.408 20.72 800.856 21.104C801.312 21.488 801.54 22.016 801.54 22.688C801.54 23.096 801.444 23.46 801.252 23.78C801.068 24.1 800.812 24.344 800.484 24.512V24.536C800.924 24.664 801.268 24.916 801.516 25.292C801.764 25.668 801.888 26.1 801.888 26.588C801.888 27.356 801.628 27.952 801.108 28.376C800.588 28.792 799.936 29 799.152 29H796.116ZM797.304 24.092H799.08C799.456 24.092 799.756 23.972 799.98 23.732C800.212 23.492 800.328 23.184 800.328 22.808C800.328 22.432 800.216 22.132 799.992 21.908C799.768 21.676 799.46 21.56 799.068 21.56H797.304V24.092ZM797.304 27.968H799.212C799.66 27.968 800.012 27.836 800.268 27.572C800.532 27.308 800.664 26.956 800.664 26.516C800.664 26.084 800.532 25.736 800.268 25.472C800.004 25.208 799.652 25.076 799.212 25.076H797.304V27.968ZM802.992 25.964C802.992 25.012 803.28 24.244 803.856 23.66C804.432 23.076 805.16 22.784 806.04 22.784C806.864 22.784 807.508 23.056 807.972 23.6C808.436 24.136 808.668 24.812 808.668 25.628C808.668 25.732 808.652 25.896 808.62 26.12H804.204C804.236 26.752 804.448 27.248 804.84 27.608C805.24 27.96 805.724 28.136 806.292 28.136C806.956 28.136 807.552 27.9 808.08 27.428L808.572 28.28C808.284 28.544 807.924 28.756 807.492 28.916C807.068 29.068 806.644 29.144 806.22 29.144C805.276 29.144 804.5 28.844 803.892 28.244C803.292 27.636 802.992 26.876 802.992 25.964ZM804.24 25.28H807.492C807.476 24.776 807.328 24.384 807.048 24.104C806.776 23.824 806.432 23.684 806.016 23.684C805.56 23.684 805.168 23.828 804.84 24.116C804.52 24.396 804.32 24.784 804.24 25.28ZM810.068 31.4V22.928H811.148V23.468L811.112 23.924H811.136C811.328 23.564 811.604 23.284 811.964 23.084C812.324 22.884 812.728 22.784 813.176 22.784C813.992 22.784 814.64 23.076 815.12 23.66C815.6 24.244 815.84 25.012 815.84 25.964C815.84 26.924 815.584 27.696 815.072 28.28C814.56 28.856 813.9 29.144 813.092 29.144C812.284 29.144 811.656 28.8 811.208 28.112H811.184C811.216 28.256 811.232 28.432 811.232 28.64V31.4H810.068ZM811.196 25.988C811.196 26.564 811.348 27.068 811.652 27.5C811.964 27.924 812.384 28.136 812.912 28.136C813.408 28.136 813.824 27.944 814.16 27.56C814.496 27.168 814.664 26.64 814.664 25.976C814.664 25.32 814.504 24.796 814.184 24.404C813.872 24.004 813.46 23.804 812.948 23.804C812.452 23.804 812.036 23.988 811.7 24.356C811.364 24.724 811.196 25.268 811.196 25.988ZM816.879 25.964C816.879 25.06 817.183 24.304 817.791 23.696C818.407 23.088 819.187 22.784 820.131 22.784C821.091 22.784 821.851 23.08 822.411 23.672L821.859 24.488C821.395 24.024 820.835 23.792 820.179 23.792C819.571 23.792 819.067 24 818.667 24.416C818.267 24.824 818.067 25.336 818.067 25.952C818.067 26.576 818.267 27.096 818.667 27.512C819.075 27.928 819.591 28.136 820.215 28.136C820.551 28.136 820.887 28.064 821.223 27.92C821.567 27.768 821.855 27.568 822.087 27.32L822.555 28.172C822.275 28.468 821.919 28.704 821.487 28.88C821.055 29.056 820.603 29.144 820.131 29.144C819.179 29.144 818.399 28.844 817.791 28.244C817.183 27.644 816.879 26.884 816.879 25.964ZM823.814 29V22.928H824.93V26.552C824.93 26.976 824.918 27.248 824.894 27.368H824.918C824.958 27.272 825.138 27 825.458 26.552L828.074 22.928H829.202V29H828.074V25.376C828.074 25.264 828.078 25.108 828.086 24.908C828.102 24.7 828.11 24.588 828.11 24.572H828.086C828.078 24.588 827.902 24.856 827.558 25.376L824.93 29H823.814ZM830.374 29L831.778 26.984L832.054 26.612V26.6C831.686 26.496 831.374 26.288 831.118 25.976C830.862 25.656 830.734 25.276 830.734 24.836C830.734 24.228 830.93 23.76 831.322 23.432C831.722 23.096 832.25 22.928 832.906 22.928H835.33V29H834.166V26.804H833.146L831.658 29H830.374ZM833.158 25.952H834.166V23.732H833.194C832.338 23.732 831.91 24.096 831.91 24.824C831.91 25.192 832.026 25.472 832.258 25.664C832.49 25.856 832.79 25.952 833.158 25.952ZM841.315 28.04H844.003V23.876H842.179V24.2C842.179 25.864 841.891 27.144 841.315 28.04ZM839.371 28.04H840.115C840.747 27.176 841.063 25.844 841.063 24.044V22.928H845.167V28.04H846.031V30.44H844.963V29H840.463V30.44H839.371V28.04ZM846.592 29.06V28.016C847.048 27.944 847.388 27.66 847.612 27.164C847.844 26.66 847.96 25.872 847.96 24.8V22.928H852.028V29H850.864V23.888H849.076V24.8C849.076 26.2 848.88 27.248 848.488 27.944C848.104 28.64 847.472 29.012 846.592 29.06ZM853.214 29L854.618 26.984L854.894 26.612V26.6C854.526 26.496 854.214 26.288 853.958 25.976C853.702 25.656 853.574 25.276 853.574 24.836C853.574 24.228 853.77 23.76 854.162 23.432C854.562 23.096 855.09 22.928 855.746 22.928H858.17V29H857.006V26.804H855.986L854.498 29H853.214ZM855.998 25.952H857.006V23.732H856.034C855.178 23.732 854.75 24.096 854.75 24.824C854.75 25.192 854.866 25.472 855.098 25.664C855.33 25.856 855.63 25.952 855.998 25.952ZM862.57 25.964C862.57 25.06 862.874 24.304 863.482 23.696C864.098 23.088 864.878 22.784 865.822 22.784C866.782 22.784 867.542 23.08 868.102 23.672L867.55 24.488C867.086 24.024 866.526 23.792 865.87 23.792C865.262 23.792 864.758 24 864.358 24.416C863.958 24.824 863.758 25.336 863.758 25.952C863.758 26.576 863.958 27.096 864.358 27.512C864.766 27.928 865.282 28.136 865.906 28.136C866.242 28.136 866.578 28.064 866.914 27.92C867.258 27.768 867.546 27.568 867.778 27.32L868.246 28.172C867.966 28.468 867.61 28.704 867.178 28.88C866.746 29.056 866.294 29.144 865.822 29.144C864.87 29.144 864.09 28.844 863.482 28.244C862.874 27.644 862.57 26.884 862.57 25.964ZM868.845 29.06V28.016C869.301 27.944 869.641 27.66 869.865 27.164C870.097 26.66 870.213 25.872 870.213 24.8V22.928H874.281V29H873.117V23.888H871.329V24.8C871.329 26.2 871.133 27.248 870.741 27.944C870.357 28.64 869.725 29.012 868.845 29.06ZM875.576 27.344C875.576 26.896 875.7 26.52 875.948 26.216C876.196 25.912 876.524 25.696 876.932 25.568C877.348 25.432 877.732 25.34 878.084 25.292C878.436 25.244 878.808 25.22 879.2 25.22H879.512V25.1C879.512 24.212 879.068 23.768 878.18 23.768C877.596 23.768 877.028 23.964 876.476 24.356L876.008 23.504C876.256 23.296 876.592 23.124 877.016 22.988C877.44 22.852 877.86 22.784 878.276 22.784C879.044 22.784 879.636 22.988 880.052 23.396C880.468 23.804 880.676 24.392 880.676 25.16V29H879.584V28.388L879.62 27.908H879.596C879.412 28.268 879.14 28.564 878.78 28.796C878.428 29.028 878.036 29.144 877.604 29.144C877.052 29.144 876.576 28.98 876.176 28.652C875.776 28.324 875.576 27.888 875.576 27.344ZM876.74 27.248C876.74 27.512 876.84 27.74 877.04 27.932C877.24 28.124 877.52 28.22 877.88 28.22C878.36 28.22 878.752 28.02 879.056 27.62C879.36 27.22 879.512 26.776 879.512 26.288V26.06H879.212C877.564 26.06 876.74 26.456 876.74 27.248ZM882.132 25.508C882.132 24.38 882.332 23.476 882.732 22.796C883.132 22.116 883.844 21.56 884.868 21.128L887.04 20.192L887.424 21.152L885.096 22.124C884.488 22.404 884.032 22.736 883.728 23.12C883.432 23.496 883.264 23.972 883.224 24.548H883.248C883.728 23.828 884.444 23.468 885.396 23.468C886.164 23.468 886.784 23.724 887.256 24.236C887.736 24.74 887.976 25.416 887.976 26.264C887.976 27.112 887.712 27.804 887.184 28.34C886.656 28.876 885.964 29.144 885.108 29.144C884.124 29.144 883.38 28.816 882.876 28.16C882.38 27.496 882.132 26.612 882.132 25.508ZM883.344 26.264C883.344 26.848 883.508 27.312 883.836 27.656C884.164 27.992 884.572 28.16 885.06 28.16C885.556 28.16 885.968 27.992 886.296 27.656C886.632 27.312 886.8 26.856 886.8 26.288C886.8 25.712 886.636 25.252 886.308 24.908C885.98 24.564 885.58 24.392 885.108 24.392C884.596 24.392 884.172 24.572 883.836 24.932C883.508 25.284 883.344 25.728 883.344 26.264ZM889.031 25.952C889.031 25.048 889.347 24.296 889.979 23.696C890.611 23.088 891.383 22.784 892.295 22.784C893.215 22.784 893.991 23.084 894.623 23.684C895.255 24.284 895.571 25.04 895.571 25.952C895.571 26.864 895.255 27.624 894.623 28.232C893.991 28.84 893.219 29.144 892.307 29.144C891.395 29.144 890.619 28.84 889.979 28.232C889.347 27.624 889.031 26.864 889.031 25.952ZM890.219 25.952C890.219 26.584 890.419 27.108 890.819 27.524C891.227 27.932 891.723 28.136 892.307 28.136C892.883 28.136 893.375 27.928 893.783 27.512C894.191 27.096 894.395 26.576 894.395 25.952C894.395 25.328 894.191 24.812 893.783 24.404C893.375 23.996 892.883 23.792 892.307 23.792C891.723 23.792 891.227 23.996 890.819 24.404C890.419 24.812 890.219 25.328 890.219 25.952ZM896.974 29V22.928H899.482C900.106 22.928 900.598 23.064 900.958 23.336C901.326 23.6 901.51 23.984 901.51 24.488C901.51 24.784 901.434 25.052 901.282 25.292C901.13 25.524 900.918 25.7 900.646 25.82V25.832C901.014 25.92 901.298 26.096 901.498 26.36C901.698 26.624 901.798 26.928 901.798 27.272C901.798 27.824 901.594 28.252 901.186 28.556C900.786 28.852 900.246 29 899.566 29H896.974ZM898.138 25.496H899.278C899.622 25.496 899.882 25.416 900.058 25.256C900.234 25.088 900.322 24.86 900.322 24.572C900.322 24.012 899.962 23.732 899.242 23.732H898.138V25.496ZM898.138 28.184H899.386C899.794 28.184 900.102 28.1 900.31 27.932C900.518 27.764 900.622 27.532 900.622 27.236C900.622 26.932 900.514 26.696 900.298 26.528C900.082 26.36 899.774 26.276 899.374 26.276H898.138V28.184ZM903.209 29V22.928H904.325V26.552C904.325 26.976 904.313 27.248 904.289 27.368H904.313C904.353 27.272 904.533 27 904.853 26.552L907.469 22.928H908.597V29H907.469V25.376C907.469 25.264 907.473 25.108 907.481 24.908C907.497 24.7 907.505 24.588 907.505 24.572H907.481C907.473 24.588 907.297 24.856 906.953 25.376L904.325 29H903.209ZM911.568 28.04H914.256V23.876H912.432V24.2C912.432 25.864 912.144 27.144 911.568 28.04ZM909.624 28.04H910.368C911 27.176 911.316 25.844 911.316 24.044V22.928H915.42V28.04H916.284V30.44H915.216V29H910.716V30.44H909.624V28.04ZM916.893 29L918.297 26.984L918.573 26.612V26.6C918.205 26.496 917.893 26.288 917.637 25.976C917.381 25.656 917.253 25.276 917.253 24.836C917.253 24.228 917.449 23.76 917.841 23.432C918.241 23.096 918.769 22.928 919.425 22.928H921.849V29H920.685V26.804H919.665L918.177 29H916.893ZM919.677 25.952H920.685V23.732H919.713C918.857 23.732 918.429 24.096 918.429 24.824C918.429 25.192 918.545 25.472 918.777 25.664C919.009 25.856 919.309 25.952 919.677 25.952ZM923.646 29V22.928H924.762V27.992H927.006V22.928H928.134V27.992H930.378V22.928H931.494V27.992H932.358V30.44H931.29V29H923.646ZM933.595 29V22.928H934.711V26.552C934.711 26.976 934.699 27.248 934.675 27.368H934.699C934.739 27.272 934.919 27 935.239 26.552L937.855 22.928H938.983V29H937.855V25.376C937.855 25.264 937.859 25.108 937.867 24.908C937.883 24.7 937.891 24.588 937.891 24.572H937.867C937.859 24.588 937.683 24.856 937.339 25.376L934.711 29H933.595ZM940.071 29L942.147 25.88L940.191 22.928H941.523L942.651 24.776L942.843 25.136H942.867C942.947 25 943.015 24.88 943.071 24.776L944.199 22.928H945.531L943.575 25.88L945.651 29H944.331L943.059 26.972L942.867 26.648H942.843C942.787 26.768 942.727 26.876 942.663 26.972L941.391 29H940.071Z" fill="#262626"/>
<rect x="503" y="72" width="220" height="52" rx="5" fill="#005DFF"/>
<path d="M526.587 103.5V92.14H528.651V96.764H530.123L532.795 92.14H535.035L531.819 97.548V97.58L535.227 103.5H532.891L530.123 98.54H528.651V103.5H526.587ZM535.784 101.244C535.784 100.668 535.939 100.177 536.248 99.772C536.568 99.3667 536.984 99.0733 537.496 98.892C538.019 98.7 538.52 98.5667 539 98.492C539.491 98.4173 540.003 98.38 540.536 98.38H540.888V98.268C540.888 97.308 540.376 96.828 539.352 96.828C538.606 96.828 537.848 97.0893 537.08 97.612L536.328 96.156C536.68 95.8787 537.155 95.644 537.752 95.452C538.35 95.2493 538.942 95.148 539.528 95.148C540.595 95.148 541.427 95.436 542.024 96.012C542.622 96.5773 542.92 97.372 542.92 98.396V103.5H541.032V102.812L541.08 102.22H541.048C540.792 102.657 540.435 103.015 539.976 103.292C539.518 103.559 539.016 103.692 538.472 103.692C537.715 103.692 537.075 103.468 536.552 103.02C536.04 102.561 535.784 101.969 535.784 101.244ZM537.8 101.068C537.8 101.356 537.907 101.607 538.12 101.82C538.344 102.033 538.648 102.14 539.032 102.14C539.576 102.14 540.024 101.916 540.376 101.468C540.728 101.02 540.904 100.529 540.904 99.996V99.772H540.552C538.718 99.772 537.8 100.204 537.8 101.068ZM546.812 103.5V97.068H544.124V95.34H551.532V97.068H548.828V103.5H546.812ZM552.191 101.244C552.191 100.668 552.345 100.177 552.655 99.772C552.975 99.3667 553.391 99.0733 553.903 98.892C554.425 98.7 554.927 98.5667 555.407 98.492C555.897 98.4173 556.409 98.38 556.943 98.38H557.295V98.268C557.295 97.308 556.783 96.828 555.759 96.828C555.012 96.828 554.255 97.0893 553.487 97.612L552.735 96.156C553.087 95.8787 553.561 95.644 554.159 95.452C554.756 95.2493 555.348 95.148 555.935 95.148C557.001 95.148 557.833 95.436 558.431 96.012C559.028 96.5773 559.327 97.372 559.327 98.396V103.5H557.439V102.812L557.487 102.22H557.455C557.199 102.657 556.841 103.015 556.383 103.292C555.924 103.559 555.423 103.692 554.879 103.692C554.121 103.692 553.481 103.468 552.959 103.02C552.447 102.561 552.191 101.969 552.191 101.244ZM554.207 101.068C554.207 101.356 554.313 101.607 554.527 101.82C554.751 102.033 555.055 102.14 555.439 102.14C555.983 102.14 556.431 101.916 556.783 101.468C557.135 101.02 557.311 100.529 557.311 99.996V99.772H556.959C555.124 99.772 554.207 100.204 554.207 101.068ZM560.625 103.58V101.788C561.179 101.713 561.601 101.388 561.889 100.812C562.187 100.225 562.337 99.2547 562.337 97.9V95.34H568.289V103.5H566.257V96.988H564.273V97.9C564.273 99.756 563.99 101.159 563.425 102.108C562.859 103.047 561.926 103.537 560.625 103.58ZM571.271 102.492C570.407 101.681 569.975 100.657 569.975 99.42C569.975 98.1827 570.407 97.164 571.271 96.364C572.135 95.5533 573.191 95.148 574.439 95.148C575.697 95.148 576.759 95.5533 577.623 96.364C578.497 97.164 578.935 98.1827 578.935 99.42C578.935 100.657 578.503 101.681 577.639 102.492C576.775 103.292 575.713 103.692 574.455 103.692C573.196 103.692 572.135 103.292 571.271 102.492ZM572.039 99.42C572.039 100.167 572.268 100.78 572.727 101.26C573.196 101.729 573.772 101.964 574.455 101.964C575.137 101.964 575.713 101.729 576.183 101.26C576.652 100.78 576.887 100.167 576.887 99.42C576.887 98.684 576.647 98.076 576.167 97.596C575.697 97.116 575.127 96.876 574.455 96.876C573.783 96.876 573.212 97.116 572.743 97.596C572.273 98.076 572.039 98.684 572.039 99.42ZM580.611 103.5V95.34H585.971V97.068H582.643V103.5H580.611ZM591.361 103.5V95.34H598.801V103.5H596.769V97.068H593.393V103.5H591.361ZM600.971 106.7V95.34H602.827V95.948L602.795 96.524H602.827C603.093 96.0867 603.456 95.7507 603.915 95.516C604.384 95.2707 604.896 95.148 605.451 95.148C606.549 95.148 607.424 95.5427 608.075 96.332C608.736 97.1213 609.067 98.1507 609.067 99.42C609.067 100.7 608.715 101.735 608.011 102.524C607.317 103.303 606.427 103.692 605.339 103.692C604.368 103.692 603.584 103.308 602.987 102.54H602.955C602.987 102.732 603.003 102.967 603.003 103.244V106.7H600.971ZM602.939 99.468C602.939 100.151 603.12 100.743 603.483 101.244C603.845 101.735 604.341 101.98 604.971 101.98C605.557 101.98 606.043 101.756 606.427 101.308C606.821 100.849 607.019 100.231 607.019 99.452C607.019 98.684 606.832 98.0653 606.459 97.596C606.085 97.1267 605.6 96.892 605.003 96.892C604.416 96.892 603.925 97.1107 603.531 97.548C603.136 97.9747 602.939 98.6147 602.939 99.468ZM611.599 102.492C610.735 101.681 610.303 100.657 610.303 99.42C610.303 98.1827 610.735 97.164 611.599 96.364C612.463 95.5533 613.519 95.148 614.767 95.148C616.026 95.148 617.087 95.5533 617.951 96.364C618.826 97.164 619.263 98.1827 619.263 99.42C619.263 100.657 618.831 101.681 617.967 102.492C617.103 103.292 616.042 103.692 614.783 103.692C613.524 103.692 612.463 103.292 611.599 102.492ZM612.367 99.42C612.367 100.167 612.596 100.78 613.055 101.26C613.524 101.729 614.1 101.964 614.783 101.964C615.466 101.964 616.042 101.729 616.511 101.26C616.98 100.78 617.215 100.167 617.215 99.42C617.215 98.684 616.975 98.076 616.495 97.596C616.026 97.116 615.455 96.876 614.783 96.876C614.111 96.876 613.54 97.116 613.071 97.596C612.602 98.076 612.367 98.684 612.367 99.42ZM620.94 103.5V95.34H626.3V97.068H622.972V103.5H620.94ZM627.69 106.7V95.34H629.546V95.948L629.514 96.524H629.546C629.812 96.0867 630.175 95.7507 630.634 95.516C631.103 95.2707 631.615 95.148 632.17 95.148C633.268 95.148 634.143 95.5427 634.794 96.332C635.455 97.1213 635.786 98.1507 635.786 99.42C635.786 100.7 635.434 101.735 634.73 102.524C634.036 103.303 633.146 103.692 632.058 103.692C631.087 103.692 630.303 103.308 629.706 102.54H629.674C629.706 102.732 629.722 102.967 629.722 103.244V106.7H627.69ZM629.658 99.468C629.658 100.151 629.839 100.743 630.202 101.244C630.564 101.735 631.06 101.98 631.69 101.98C632.276 101.98 632.762 101.756 633.146 101.308C633.54 100.849 633.738 100.231 633.738 99.452C633.738 98.684 633.551 98.0653 633.178 97.596C632.804 97.1267 632.319 96.892 631.722 96.892C631.135 96.892 630.644 97.1107 630.25 97.548C629.855 97.9747 629.658 98.6147 629.658 99.468ZM636.894 101.244C636.894 100.668 637.048 100.177 637.358 99.772C637.678 99.3667 638.094 99.0733 638.606 98.892C639.128 98.7 639.63 98.5667 640.11 98.492C640.6 98.4173 641.112 98.38 641.646 98.38H641.998V98.268C641.998 97.308 641.486 96.828 640.462 96.828C639.715 96.828 638.958 97.0893 638.19 97.612L637.438 96.156C637.79 95.8787 638.264 95.644 638.862 95.452C639.459 95.2493 640.051 95.148 640.638 95.148C641.704 95.148 642.536 95.436 643.134 96.012C643.731 96.5773 644.03 97.372 644.03 98.396V103.5H642.142V102.812L642.19 102.22H642.158C641.902 102.657 641.544 103.015 641.086 103.292C640.627 103.559 640.126 103.692 639.582 103.692C638.824 103.692 638.184 103.468 637.662 103.02C637.15 102.561 636.894 101.969 636.894 101.244ZM638.91 101.068C638.91 101.356 639.016 101.607 639.23 101.82C639.454 102.033 639.758 102.14 640.142 102.14C640.686 102.14 641.134 101.916 641.486 101.468C641.838 101.02 642.014 100.529 642.014 99.996V99.772H641.662C639.827 99.772 638.91 100.204 638.91 101.068ZM645.76 103.5L646.496 95.34H648.8L650.528 99.548L650.928 100.588H650.96C651.109 100.204 651.242 99.8573 651.36 99.548L653.12 95.34H655.392L656.128 103.5H654.176L653.888 99.084L653.904 97.692H653.872C653.722 98.0973 653.562 98.492 653.392 98.876L651.792 102.476H650.112L648.512 98.892L648.016 97.692H647.984L648 99.084L647.712 103.5H645.76ZM657.65 103.5L658.386 95.34H660.69L662.418 99.548L662.818 100.588H662.85C663 100.204 663.133 99.8573 663.25 99.548L665.01 95.34H667.282L668.018 103.5H666.066L665.778 99.084L665.794 97.692H665.762C665.613 98.0973 665.453 98.492 665.282 98.876L663.682 102.476H662.002L660.402 98.892L659.906 97.692H659.874L659.89 99.084L659.602 103.5H657.65Z" fill="white"/>
<g clip-path="url(#clip1_200_248)">
<path d="M700 106L682 106L682 104L700 104L700 106ZM700 99L682 99L682 97L700 97L700 99ZM700 92L682 92L682 90L700 90L700 92Z" fill="white"/>
</g>
<g clip-path="url(#clip2_200_248)">
<path d="M1401.03 102.617L1405.31 106.899L1403.9 108.314L1399.62 104.031C1398.02 105.308 1396.04 106.003 1394 106C1389.03 106 1385 101.968 1385 97C1385 92.032 1389.03 88 1394 88C1398.97 88 1403 92.032 1403 97C1403 99.042 1402.31 101.024 1401.03 102.617ZM1399.02 101.875C1400.29 100.57 1401 98.8204 1401 97C1401 93.132 1397.87 90 1394 90C1390.13 90 1387 93.132 1387 97C1387 100.867 1390.13 104 1394 104C1395.82 104.003 1397.57 103.294 1398.88 102.025L1399.02 101.875Z" fill="#005DFF"/>
</g>
<g clip-path="url(#clip3_200_248)">
<path d="M1520.9 91.3981L1519.36 92.9667L1522.22 95.8796H1511V98.1204H1522.22L1519.36 101.033L1520.9 102.602L1526.4 97L1520.9 91.3981ZM1530.8 104.843H1522V107.083H1530.8C1532.01 107.083 1533 106.075 1533 104.843V89.1574C1533 87.925 1532.01 86.9167 1530.8 86.9167H1522V89.1574H1530.8V104.843Z" fill="#215FFF"/>
</g>
<path d="M1454.55 104.6C1453.35 104.6 1452.38 105.59 1452.38 106.8C1452.38 108.01 1453.35 109 1454.55 109C1455.75 109 1456.73 108.01 1456.73 106.8C1456.73 105.59 1455.75 104.6 1454.55 104.6ZM1465.46 104.6C1464.26 104.6 1463.29 105.59 1463.29 106.8C1463.29 108.01 1464.26 109 1465.46 109C1466.66 109 1467.64 108.01 1467.64 106.8C1467.64 105.59 1466.66 104.6 1465.46 104.6ZM1455.75 99.1H1463.88C1464.7 99.1 1465.42 98.649 1465.79 97.967L1470 90.256L1468.1 89.2L1467.37 90.539H1452.89L1453.46 92.5477H1466.55L1463.88 96.9H1456.22L1451.57 87H1448V89.2H1450.18L1454.11 97.549L1452.64 100.233C1451.84 101.707 1452.89 103.5 1454.55 103.5H1467.64V101.3H1454.55L1455.75 99.1Z" fill="#005DFF"/>
<path d="M1114.4 27.344C1114.4 26.896 1114.52 26.52 1114.77 26.216C1115.02 25.912 1115.34 25.696 1115.75 25.568C1116.17 25.432 1116.55 25.34 1116.9 25.292C1117.26 25.244 1117.63 25.22 1118.02 25.22H1118.33V25.1C1118.33 24.212 1117.89 23.768 1117 23.768C1116.42 23.768 1115.85 23.964 1115.3 24.356L1114.83 23.504C1115.08 23.296 1115.41 23.124 1115.84 22.988C1116.26 22.852 1116.68 22.784 1117.1 22.784C1117.86 22.784 1118.46 22.988 1118.87 23.396C1119.29 23.804 1119.5 24.392 1119.5 25.16V29H1118.4V28.388L1118.44 27.908H1118.42C1118.23 28.268 1117.96 28.564 1117.6 28.796C1117.25 29.028 1116.86 29.144 1116.42 29.144C1115.87 29.144 1115.4 28.98 1115 28.652C1114.6 28.324 1114.4 27.888 1114.4 27.344ZM1115.56 27.248C1115.56 27.512 1115.66 27.74 1115.86 27.932C1116.06 28.124 1116.34 28.22 1116.7 28.22C1117.18 28.22 1117.57 28.02 1117.88 27.62C1118.18 27.22 1118.33 26.776 1118.33 26.288V26.06H1118.03C1116.38 26.06 1115.56 26.456 1115.56 27.248ZM1121.23 31.4V22.928H1122.31V23.468L1122.27 23.924H1122.3C1122.49 23.564 1122.76 23.284 1123.12 23.084C1123.48 22.884 1123.89 22.784 1124.34 22.784C1125.15 22.784 1125.8 23.076 1126.28 23.66C1126.76 24.244 1127 25.012 1127 25.964C1127 26.924 1126.74 27.696 1126.23 28.28C1125.72 28.856 1125.06 29.144 1124.25 29.144C1123.44 29.144 1122.82 28.8 1122.37 28.112H1122.34C1122.38 28.256 1122.39 28.432 1122.39 28.64V31.4H1121.23ZM1122.36 25.988C1122.36 26.564 1122.51 27.068 1122.81 27.5C1123.12 27.924 1123.54 28.136 1124.07 28.136C1124.57 28.136 1124.98 27.944 1125.32 27.56C1125.66 27.168 1125.82 26.64 1125.82 25.976C1125.82 25.32 1125.66 24.796 1125.34 24.404C1125.03 24.004 1124.62 23.804 1124.11 23.804C1123.61 23.804 1123.2 23.988 1122.86 24.356C1122.52 24.724 1122.36 25.268 1122.36 25.988ZM1128.44 29V20.528H1129.6V25.16H1130.46L1132.11 22.928H1133.43L1131.41 25.604V25.628L1133.66 29H1132.3L1130.49 26.156H1129.6V29H1128.44ZM1134.68 21.704V20.528H1135.88V21.704H1134.68ZM1134.7 29V22.928H1135.87V29H1134.7ZM1137.66 31.4V22.928H1138.74V23.468L1138.7 23.924H1138.73C1138.92 23.564 1139.19 23.284 1139.55 23.084C1139.91 22.884 1140.32 22.784 1140.77 22.784C1141.58 22.784 1142.23 23.076 1142.71 23.66C1143.19 24.244 1143.43 25.012 1143.43 25.964C1143.43 26.924 1143.17 27.696 1142.66 28.28C1142.15 28.856 1141.49 29.144 1140.68 29.144C1139.87 29.144 1139.25 28.8 1138.8 28.112H1138.77C1138.81 28.256 1138.82 28.432 1138.82 28.64V31.4H1137.66ZM1138.79 25.988C1138.79 26.564 1138.94 27.068 1139.24 27.5C1139.55 27.924 1139.97 28.136 1140.5 28.136C1141 28.136 1141.41 27.944 1141.75 27.56C1142.09 27.168 1142.25 26.64 1142.25 25.976C1142.25 25.32 1142.09 24.796 1141.77 24.404C1141.46 24.004 1141.05 23.804 1140.54 23.804C1140.04 23.804 1139.63 23.988 1139.29 24.356C1138.95 24.724 1138.79 25.268 1138.79 25.988ZM1144.86 31.4V22.928H1145.94V23.468L1145.91 23.924H1145.93C1146.12 23.564 1146.4 23.284 1146.76 23.084C1147.12 22.884 1147.52 22.784 1147.97 22.784C1148.79 22.784 1149.44 23.076 1149.92 23.66C1150.4 24.244 1150.64 25.012 1150.64 25.964C1150.64 26.924 1150.38 27.696 1149.87 28.28C1149.36 28.856 1148.7 29.144 1147.89 29.144C1147.08 29.144 1146.45 28.8 1146 28.112H1145.98C1146.01 28.256 1146.03 28.432 1146.03 28.64V31.4H1144.86ZM1145.99 25.988C1145.99 26.564 1146.14 27.068 1146.45 27.5C1146.76 27.924 1147.18 28.136 1147.71 28.136C1148.2 28.136 1148.62 27.944 1148.96 27.56C1149.29 27.168 1149.46 26.64 1149.46 25.976C1149.46 25.32 1149.3 24.796 1148.98 24.404C1148.67 24.004 1148.26 23.804 1147.74 23.804C1147.25 23.804 1146.83 23.988 1146.5 24.356C1146.16 24.724 1145.99 25.268 1145.99 25.988ZM1152.07 29V22.928H1153.2V24.02L1153.16 24.464H1153.19C1153.34 24 1153.59 23.616 1153.93 23.312C1154.28 23.008 1154.67 22.856 1155.12 22.856C1155.2 22.856 1155.3 22.864 1155.43 22.88V24.032C1155.37 24.016 1155.26 24.008 1155.1 24.008C1154.49 24.008 1154.02 24.256 1153.7 24.752C1153.39 25.24 1153.24 25.816 1153.24 26.48V29H1152.07ZM1156.87 29V23.936H1156.12V22.988H1156.87V22.724C1156.87 22.34 1156.93 22.008 1157.04 21.728C1157.15 21.44 1157.29 21.22 1157.45 21.068C1157.62 20.908 1157.81 20.784 1158.02 20.696C1158.25 20.6 1158.45 20.54 1158.62 20.516C1158.8 20.484 1158.98 20.468 1159.16 20.468C1159.31 20.468 1159.46 20.48 1159.61 20.504V21.512C1159.54 21.496 1159.44 21.488 1159.31 21.488C1158.46 21.488 1158.04 21.904 1158.04 22.736V22.988H1159.46V23.936H1158.04V29H1156.87ZM1161.72 29.228C1160.85 28.388 1160.42 27.348 1160.42 26.108C1160.42 24.868 1160.85 23.82 1161.69 22.964C1162.54 22.1 1163.58 21.668 1164.8 21.668C1165.88 21.668 1166.67 21.9 1167.17 22.364C1167.67 22.82 1167.92 23.4 1167.92 24.104V27.5H1168.79V28.376H1165.51C1164.78 28.376 1164.19 28.156 1163.72 27.716C1163.26 27.268 1163.03 26.736 1163.03 26.12C1163.03 25.496 1163.25 24.964 1163.71 24.524C1164.17 24.084 1164.77 23.864 1165.51 23.864H1166.81C1166.8 23.512 1166.62 23.22 1166.28 22.988C1165.93 22.748 1165.46 22.628 1164.86 22.628C1163.94 22.628 1163.17 22.972 1162.53 23.66C1161.9 24.348 1161.59 25.164 1161.59 26.108C1161.59 27.076 1161.9 27.892 1162.53 28.556C1163.17 29.22 1163.99 29.552 1164.99 29.552V30.5C1163.67 30.5 1162.58 30.076 1161.72 29.228ZM1164.2 26.096C1164.2 26.488 1164.33 26.82 1164.6 27.092C1164.86 27.364 1165.19 27.5 1165.59 27.5H1166.81V24.668H1165.62C1165.21 24.668 1164.87 24.808 1164.6 25.088C1164.33 25.36 1164.2 25.696 1164.2 26.096ZM1169.9 30.26C1170.12 30.436 1170.36 30.524 1170.6 30.524C1171.08 30.524 1171.45 30.224 1171.7 29.624L1172 28.928L1169.46 22.928H1170.76L1172.29 26.9L1172.52 27.632H1172.54C1172.6 27.36 1172.67 27.12 1172.74 26.912L1174.22 22.928H1175.48L1172.62 30.092C1172.45 30.556 1172.18 30.908 1171.83 31.148C1171.49 31.396 1171.1 31.52 1170.66 31.52C1170.46 31.52 1170.26 31.488 1170.07 31.424C1169.88 31.36 1169.73 31.296 1169.64 31.232L1169.49 31.148L1169.9 30.26ZM1175.98 27.344C1175.98 26.896 1176.1 26.52 1176.35 26.216C1176.6 25.912 1176.93 25.696 1177.33 25.568C1177.75 25.432 1178.13 25.34 1178.49 25.292C1178.84 25.244 1179.21 25.22 1179.6 25.22H1179.91V25.1C1179.91 24.212 1179.47 23.768 1178.58 23.768C1178 23.768 1177.43 23.964 1176.88 24.356L1176.41 23.504C1176.66 23.296 1176.99 23.124 1177.42 22.988C1177.84 22.852 1178.26 22.784 1178.68 22.784C1179.45 22.784 1180.04 22.988 1180.45 23.396C1180.87 23.804 1181.08 24.392 1181.08 25.16V29H1179.99V28.388L1180.02 27.908H1180C1179.81 28.268 1179.54 28.564 1179.18 28.796C1178.83 29.028 1178.44 29.144 1178.01 29.144C1177.45 29.144 1176.98 28.98 1176.58 28.652C1176.18 28.324 1175.98 27.888 1175.98 27.344ZM1177.14 27.248C1177.14 27.512 1177.24 27.74 1177.44 27.932C1177.64 28.124 1177.92 28.22 1178.28 28.22C1178.76 28.22 1179.15 28.02 1179.46 27.62C1179.76 27.22 1179.91 26.776 1179.91 26.288V26.06H1179.61C1177.97 26.06 1177.14 26.456 1177.14 27.248ZM1182.81 29V22.928H1183.94V23.756L1183.9 24.212H1183.93C1184.08 23.868 1184.35 23.544 1184.74 23.24C1185.14 22.936 1185.64 22.784 1186.23 22.784C1187.61 22.784 1188.31 23.56 1188.31 25.112V29H1187.14V25.376C1187.14 24.888 1187.06 24.512 1186.9 24.248C1186.75 23.984 1186.45 23.852 1186 23.852C1185.42 23.852 1184.93 24.068 1184.55 24.5C1184.17 24.924 1183.97 25.452 1183.97 26.084V29H1182.81ZM1189.67 25.964C1189.67 25.004 1189.92 24.236 1190.44 23.66C1190.95 23.076 1191.61 22.784 1192.42 22.784C1192.81 22.784 1193.17 22.872 1193.51 23.048C1193.84 23.216 1194.11 23.46 1194.3 23.78H1194.32C1194.31 23.66 1194.3 23.524 1194.3 23.372V20.528H1195.45V29H1194.35V28.388L1194.38 27.98H1194.36C1194.18 28.324 1193.91 28.604 1193.56 28.82C1193.21 29.036 1192.81 29.144 1192.34 29.144C1191.54 29.144 1190.89 28.852 1190.4 28.268C1189.91 27.684 1189.67 26.916 1189.67 25.964ZM1190.86 25.964C1190.86 26.62 1191.01 27.148 1191.32 27.548C1191.64 27.94 1192.06 28.136 1192.57 28.136C1193.07 28.136 1193.48 27.952 1193.82 27.584C1194.16 27.216 1194.32 26.672 1194.32 25.952C1194.32 25.36 1194.17 24.856 1193.87 24.44C1193.57 24.016 1193.15 23.804 1192.6 23.804C1192.1 23.804 1191.68 24 1191.35 24.392C1191.02 24.776 1190.86 25.3 1190.86 25.964ZM1196.85 25.964C1196.85 25.012 1197.14 24.244 1197.72 23.66C1198.29 23.076 1199.02 22.784 1199.9 22.784C1200.72 22.784 1201.37 23.056 1201.83 23.6C1202.3 24.136 1202.53 24.812 1202.53 25.628C1202.53 25.732 1202.51 25.896 1202.48 26.12H1198.06C1198.1 26.752 1198.31 27.248 1198.7 27.608C1199.1 27.96 1199.58 28.136 1200.15 28.136C1200.82 28.136 1201.41 27.9 1201.94 27.428L1202.43 28.28C1202.14 28.544 1201.78 28.756 1201.35 28.916C1200.93 29.068 1200.5 29.144 1200.08 29.144C1199.14 29.144 1198.36 28.844 1197.75 28.244C1197.15 27.636 1196.85 26.876 1196.85 25.964ZM1198.1 25.28H1201.35C1201.34 24.776 1201.19 24.384 1200.91 24.104C1200.64 23.824 1200.29 23.684 1199.88 23.684C1199.42 23.684 1199.03 23.828 1198.7 24.116C1198.38 24.396 1198.18 24.784 1198.1 25.28ZM1203.18 29L1205.26 25.88L1203.3 22.928H1204.64L1205.76 24.776L1205.96 25.136H1205.98C1206.06 25 1206.13 24.88 1206.18 24.776L1207.31 22.928H1208.64L1206.69 25.88L1208.76 29H1207.44L1206.17 26.972L1205.98 26.648H1205.96C1205.9 26.768 1205.84 26.876 1205.78 26.972L1204.5 29H1203.18ZM1209.81 29V27.74H1211.06V29H1209.81ZM1212.8 29V22.928H1213.93V24.02L1213.89 24.464H1213.91C1214.07 24 1214.31 23.616 1214.66 23.312C1215 23.008 1215.4 22.856 1215.85 22.856C1215.93 22.856 1216.03 22.864 1216.16 22.88V24.032C1216.09 24.016 1215.98 24.008 1215.82 24.008C1215.21 24.008 1214.75 24.256 1214.43 24.752C1214.12 25.24 1213.96 25.816 1213.96 26.48V29H1212.8ZM1217.24 26.816V22.928H1218.4V26.552C1218.4 27.032 1218.48 27.404 1218.64 27.668C1218.8 27.932 1219.1 28.064 1219.54 28.064C1220.14 28.064 1220.62 27.84 1220.98 27.392C1221.34 26.944 1221.52 26.404 1221.52 25.772V22.928H1222.67V29H1221.55V28.16L1221.59 27.716H1221.57C1221.41 28.076 1221.13 28.404 1220.73 28.7C1220.33 28.996 1219.86 29.144 1219.31 29.144C1217.93 29.144 1217.24 28.368 1217.24 26.816Z" fill="#262626"/>
<g clip-path="url(#clip4_200_248)">
<path d="M1090 19H1102C1102.18 19 1102.35 19.0702 1102.47 19.1953C1102.6 19.3203 1102.67 19.4899 1102.67 19.6667V30.3333C1102.67 30.5101 1102.6 30.6797 1102.47 30.8047C1102.35 30.9298 1102.18 31 1102 31H1090C1089.82 31 1089.65 30.9298 1089.53 30.8047C1089.4 30.6797 1089.33 30.5101 1089.33 30.3333V19.6667C1089.33 19.4899 1089.4 19.3203 1089.53 19.1953C1089.65 19.0702 1089.82 19 1090 19ZM1096.04 24.7887L1091.77 21.1587L1090.9 22.1747L1096.05 26.5447L1101.1 22.1713L1100.23 21.1627L1096.04 24.7887H1096.04Z" fill="#005DFF"/>
</g>
<path d="M1288.66 26.588C1288.66 26.292 1288.71 26.008 1288.82 25.736C1288.92 25.456 1289.06 25.22 1289.22 25.028C1289.39 24.836 1289.54 24.688 1289.66 24.584C1289.78 24.472 1289.9 24.376 1290.02 24.296C1289.38 23.856 1289.07 23.3 1289.07 22.628C1289.07 22.004 1289.3 21.476 1289.75 21.044C1290.21 20.604 1290.86 20.384 1291.71 20.384C1292.5 20.384 1293.14 20.592 1293.63 21.008C1294.12 21.416 1294.37 21.96 1294.37 22.64C1294.37 23.104 1294.26 23.536 1294.02 23.936C1293.8 24.328 1293.58 24.636 1293.35 24.86C1294.12 25.324 1294.5 25.924 1294.5 26.66C1294.5 27.34 1294.24 27.924 1293.7 28.412C1293.16 28.9 1292.46 29.144 1291.6 29.144C1290.76 29.144 1290.06 28.904 1289.5 28.424C1288.94 27.936 1288.66 27.324 1288.66 26.588ZM1292.44 24.404C1292.95 23.86 1293.21 23.304 1293.21 22.736C1293.21 22.336 1293.07 22.024 1292.79 21.8C1292.51 21.568 1292.14 21.452 1291.68 21.452C1291.24 21.452 1290.88 21.564 1290.63 21.788C1290.37 22.012 1290.24 22.292 1290.24 22.628C1290.24 22.748 1290.26 22.86 1290.29 22.964C1290.33 23.068 1290.38 23.16 1290.42 23.24C1290.48 23.32 1290.56 23.404 1290.66 23.492C1290.77 23.572 1290.86 23.64 1290.94 23.696C1291.02 23.752 1291.13 23.816 1291.28 23.888C1291.43 23.96 1291.55 24.02 1291.64 24.068C1291.73 24.108 1291.87 24.164 1292.04 24.236C1292.22 24.308 1292.35 24.364 1292.44 24.404ZM1289.87 26.492C1289.87 26.948 1290.04 27.328 1290.39 27.632C1290.73 27.928 1291.13 28.076 1291.59 28.076C1292.05 28.076 1292.45 27.944 1292.79 27.68C1293.12 27.408 1293.29 27.06 1293.29 26.636C1293.29 26.452 1293.25 26.288 1293.16 26.144C1293.08 25.992 1292.94 25.852 1292.75 25.724C1292.56 25.596 1292.39 25.492 1292.24 25.412C1292.08 25.332 1291.86 25.228 1291.55 25.1C1291.26 24.972 1291.04 24.876 1290.9 24.812C1290.22 25.292 1289.87 25.852 1289.87 26.492ZM1298.89 26.588C1298.89 26.292 1298.94 26.008 1299.05 25.736C1299.15 25.456 1299.29 25.22 1299.45 25.028C1299.62 24.836 1299.77 24.688 1299.89 24.584C1300.01 24.472 1300.13 24.376 1300.25 24.296C1299.61 23.856 1299.3 23.3 1299.3 22.628C1299.3 22.004 1299.53 21.476 1299.98 21.044C1300.44 20.604 1301.09 20.384 1301.94 20.384C1302.73 20.384 1303.37 20.592 1303.86 21.008C1304.35 21.416 1304.6 21.96 1304.6 22.64C1304.6 23.104 1304.49 23.536 1304.25 23.936C1304.03 24.328 1303.81 24.636 1303.58 24.86C1304.35 25.324 1304.73 25.924 1304.73 26.66C1304.73 27.34 1304.47 27.924 1303.93 28.412C1303.39 28.9 1302.69 29.144 1301.83 29.144C1300.99 29.144 1300.29 28.904 1299.73 28.424C1299.17 27.936 1298.89 27.324 1298.89 26.588ZM1302.67 24.404C1303.18 23.86 1303.44 23.304 1303.44 22.736C1303.44 22.336 1303.3 22.024 1303.02 21.8C1302.74 21.568 1302.37 21.452 1301.91 21.452C1301.47 21.452 1301.11 21.564 1300.86 21.788C1300.6 22.012 1300.47 22.292 1300.47 22.628C1300.47 22.748 1300.49 22.86 1300.52 22.964C1300.56 23.068 1300.61 23.16 1300.65 23.24C1300.71 23.32 1300.79 23.404 1300.89 23.492C1301 23.572 1301.09 23.64 1301.17 23.696C1301.25 23.752 1301.36 23.816 1301.51 23.888C1301.66 23.96 1301.78 24.02 1301.87 24.068C1301.96 24.108 1302.1 24.164 1302.27 24.236C1302.45 24.308 1302.58 24.364 1302.67 24.404ZM1300.1 26.492C1300.1 26.948 1300.27 27.328 1300.62 27.632C1300.96 27.928 1301.36 28.076 1301.82 28.076C1302.28 28.076 1302.68 27.944 1303.02 27.68C1303.35 27.408 1303.52 27.06 1303.52 26.636C1303.52 26.452 1303.48 26.288 1303.39 26.144C1303.31 25.992 1303.17 25.852 1302.98 25.724C1302.79 25.596 1302.62 25.492 1302.47 25.412C1302.31 25.332 1302.09 25.228 1301.78 25.1C1301.49 24.972 1301.27 24.876 1301.13 24.812C1300.45 25.292 1300.1 25.852 1300.1 26.492ZM1309.19 29.144C1308.65 29.144 1308.18 29.032 1307.78 28.808C1307.38 28.584 1307.06 28.268 1306.84 27.86C1306.62 27.452 1306.45 26.992 1306.35 26.48C1306.24 25.968 1306.19 25.392 1306.19 24.752C1306.19 24.112 1306.24 23.54 1306.35 23.036C1306.45 22.524 1306.62 22.068 1306.84 21.668C1307.06 21.26 1307.38 20.944 1307.78 20.72C1308.18 20.496 1308.65 20.384 1309.19 20.384C1311.19 20.384 1312.19 21.84 1312.19 24.752C1312.19 27.68 1311.19 29.144 1309.19 29.144ZM1307.42 24.752C1307.42 26.952 1308.01 28.052 1309.19 28.052C1310.38 28.052 1310.97 26.952 1310.97 24.752C1310.97 22.568 1310.38 21.476 1309.19 21.476C1308.01 21.476 1307.42 22.568 1307.42 24.752ZM1316.66 29.144C1316.11 29.144 1315.64 29.032 1315.24 28.808C1314.84 28.584 1314.53 28.268 1314.31 27.86C1314.08 27.452 1313.92 26.992 1313.81 26.48C1313.71 25.968 1313.66 25.392 1313.66 24.752C1313.66 24.112 1313.71 23.54 1313.81 23.036C1313.92 22.524 1314.08 22.068 1314.31 21.668C1314.53 21.26 1314.84 20.944 1315.24 20.72C1315.64 20.496 1316.11 20.384 1316.66 20.384C1318.66 20.384 1319.66 21.84 1319.66 24.752C1319.66 27.68 1318.66 29.144 1316.66 29.144ZM1314.88 24.752C1314.88 26.952 1315.47 28.052 1316.66 28.052C1317.84 28.052 1318.43 26.952 1318.43 24.752C1318.43 22.568 1317.84 21.476 1316.66 21.476C1315.47 21.476 1314.88 22.568 1314.88 24.752ZM1324.49 29L1327.79 22.34C1327.87 22.196 1327.94 22.06 1328.02 21.932C1328.1 21.796 1328.17 21.7 1328.21 21.644L1328.27 21.56V21.536C1328.16 21.552 1327.96 21.56 1327.67 21.56H1323.88V20.528H1329.55V21.344L1325.73 29H1324.49ZM1333.57 29.144C1333.02 29.144 1332.55 29.032 1332.15 28.808C1331.75 28.584 1331.44 28.268 1331.22 27.86C1330.99 27.452 1330.83 26.992 1330.72 26.48C1330.62 25.968 1330.57 25.392 1330.57 24.752C1330.57 24.112 1330.62 23.54 1330.72 23.036C1330.83 22.524 1330.99 22.068 1331.22 21.668C1331.44 21.26 1331.75 20.944 1332.15 20.72C1332.55 20.496 1333.02 20.384 1333.57 20.384C1335.57 20.384 1336.57 21.84 1336.57 24.752C1336.57 27.68 1335.57 29.144 1333.57 29.144ZM1331.79 24.752C1331.79 26.952 1332.38 28.052 1333.57 28.052C1334.75 28.052 1335.34 26.952 1335.34 24.752C1335.34 22.568 1334.75 21.476 1333.57 21.476C1332.38 21.476 1331.79 22.568 1331.79 24.752ZM1341.03 29.144C1340.49 29.144 1340.02 29.032 1339.62 28.808C1339.22 28.584 1338.9 28.268 1338.68 27.86C1338.46 27.452 1338.29 26.992 1338.19 26.48C1338.08 25.968 1338.03 25.392 1338.03 24.752C1338.03 24.112 1338.08 23.54 1338.19 23.036C1338.29 22.524 1338.46 22.068 1338.68 21.668C1338.9 21.26 1339.22 20.944 1339.62 20.72C1340.02 20.496 1340.49 20.384 1341.03 20.384C1343.03 20.384 1344.03 21.84 1344.03 24.752C1344.03 27.68 1343.03 29.144 1341.03 29.144ZM1339.26 24.752C1339.26 26.952 1339.85 28.052 1341.03 28.052C1342.22 28.052 1342.81 26.952 1342.81 24.752C1342.81 22.568 1342.22 21.476 1341.03 21.476C1339.85 21.476 1339.26 22.568 1339.26 24.752ZM1348.35 27.968L1349.03 27.104C1349.52 27.712 1350.14 28.016 1350.89 28.016C1351.4 28.016 1351.83 27.856 1352.19 27.536C1352.55 27.216 1352.73 26.804 1352.73 26.3C1352.73 25.796 1352.55 25.38 1352.18 25.052C1351.82 24.724 1351.37 24.56 1350.81 24.56C1350.29 24.56 1349.81 24.7 1349.39 24.98L1348.69 24.728L1349.11 20.528H1353.39V21.56H1350.14L1349.95 23.348L1349.88 23.78H1349.9C1350.22 23.612 1350.59 23.528 1351.01 23.528C1351.89 23.528 1352.6 23.796 1353.14 24.332C1353.69 24.86 1353.96 25.516 1353.96 26.3C1353.96 27.108 1353.67 27.784 1353.09 28.328C1352.53 28.872 1351.81 29.144 1350.96 29.144C1350.45 29.144 1349.97 29.044 1349.51 28.844C1349.05 28.636 1348.67 28.344 1348.35 27.968ZM1354.94 26.732V25.988L1358.86 20.528H1360.2V25.736H1361.36V26.732H1360.2V29H1359.04V26.732H1354.94ZM1356.24 25.736H1359.04V22.64L1359.09 21.788H1359.06C1358.94 22.06 1358.8 22.296 1358.64 22.496L1356.24 25.712V25.736ZM1368.58 29.144C1368.04 29.144 1367.57 29.032 1367.17 28.808C1366.77 28.584 1366.46 28.268 1366.23 27.86C1366.01 27.452 1365.84 26.992 1365.74 26.48C1365.64 25.968 1365.58 25.392 1365.58 24.752C1365.58 24.112 1365.64 23.54 1365.74 23.036C1365.84 22.524 1366.01 22.068 1366.23 21.668C1366.46 21.26 1366.77 20.944 1367.17 20.72C1367.57 20.496 1368.04 20.384 1368.58 20.384C1370.58 20.384 1371.58 21.84 1371.58 24.752C1371.58 27.68 1370.58 29.144 1368.58 29.144ZM1366.81 24.752C1366.81 26.952 1367.4 28.052 1368.58 28.052C1369.77 28.052 1370.36 26.952 1370.36 24.752C1370.36 22.568 1369.77 21.476 1368.58 21.476C1367.4 21.476 1366.81 22.568 1366.81 24.752ZM1373.42 29L1376.72 22.34C1376.79 22.196 1376.87 22.06 1376.95 21.932C1377.03 21.796 1377.09 21.7 1377.14 21.644L1377.2 21.56V21.536C1377.09 21.552 1376.89 21.56 1376.6 21.56H1372.81V20.528H1378.47V21.344L1374.66 29H1373.42Z" fill="#262626"/>
<g clip-path="url(#clip5_200_248)">
<path d="M1278 27.9467V30.304C1278 30.4728 1277.94 30.6353 1277.82 30.7588C1277.71 30.8823 1277.55 30.9575 1277.38 30.9693C1277.09 30.9893 1276.85 31 1276.67 31C1270.78 31 1266 26.2247 1266 20.3333C1266 20.1493 1266.01 19.9113 1266.03 19.62C1266.04 19.4516 1266.12 19.294 1266.24 19.1789C1266.36 19.0639 1266.53 18.9999 1266.7 19H1269.05C1269.14 18.9999 1269.22 19.0306 1269.28 19.086C1269.34 19.1415 1269.38 19.2177 1269.39 19.3C1269.4 19.4533 1269.41 19.5753 1269.43 19.668C1269.56 20.5926 1269.83 21.4919 1270.23 22.3353C1270.3 22.4687 1270.26 22.628 1270.14 22.7133L1268.7 23.7413C1269.58 25.791 1271.21 27.4244 1273.26 28.304L1274.29 26.868C1274.33 26.8093 1274.39 26.7673 1274.46 26.7491C1274.53 26.7309 1274.6 26.7379 1274.67 26.7687C1275.51 27.1692 1276.41 27.4401 1277.33 27.572C1277.43 27.5853 1277.55 27.6 1277.7 27.6147C1277.78 27.6231 1277.86 27.6617 1277.91 27.7231C1277.97 27.7844 1278 27.8641 1278 27.9467H1278Z" fill="#005DFF"/>
</g>
<path d="M1443.66 26.588C1443.66 26.292 1443.71 26.008 1443.82 25.736C1443.92 25.456 1444.06 25.22 1444.22 25.028C1444.39 24.836 1444.54 24.688 1444.66 24.584C1444.78 24.472 1444.9 24.376 1445.02 24.296C1444.38 23.856 1444.07 23.3 1444.07 22.628C1444.07 22.004 1444.3 21.476 1444.75 21.044C1445.21 20.604 1445.86 20.384 1446.71 20.384C1447.5 20.384 1448.14 20.592 1448.63 21.008C1449.12 21.416 1449.37 21.96 1449.37 22.64C1449.37 23.104 1449.26 23.536 1449.02 23.936C1448.8 24.328 1448.58 24.636 1448.35 24.86C1449.12 25.324 1449.5 25.924 1449.5 26.66C1449.5 27.34 1449.24 27.924 1448.7 28.412C1448.16 28.9 1447.46 29.144 1446.6 29.144C1445.76 29.144 1445.06 28.904 1444.5 28.424C1443.94 27.936 1443.66 27.324 1443.66 26.588ZM1447.44 24.404C1447.95 23.86 1448.21 23.304 1448.21 22.736C1448.21 22.336 1448.07 22.024 1447.79 21.8C1447.51 21.568 1447.14 21.452 1446.68 21.452C1446.24 21.452 1445.88 21.564 1445.63 21.788C1445.37 22.012 1445.24 22.292 1445.24 22.628C1445.24 22.748 1445.26 22.86 1445.29 22.964C1445.33 23.068 1445.38 23.16 1445.42 23.24C1445.48 23.32 1445.56 23.404 1445.66 23.492C1445.77 23.572 1445.86 23.64 1445.94 23.696C1446.02 23.752 1446.13 23.816 1446.28 23.888C1446.43 23.96 1446.55 24.02 1446.64 24.068C1446.73 24.108 1446.87 24.164 1447.04 24.236C1447.22 24.308 1447.35 24.364 1447.44 24.404ZM1444.87 26.492C1444.87 26.948 1445.04 27.328 1445.39 27.632C1445.73 27.928 1446.13 28.076 1446.59 28.076C1447.05 28.076 1447.45 27.944 1447.79 27.68C1448.12 27.408 1448.29 27.06 1448.29 26.636C1448.29 26.452 1448.25 26.288 1448.16 26.144C1448.08 25.992 1447.94 25.852 1447.75 25.724C1447.56 25.596 1447.39 25.492 1447.24 25.412C1447.08 25.332 1446.86 25.228 1446.55 25.1C1446.26 24.972 1446.04 24.876 1445.9 24.812C1445.22 25.292 1444.87 25.852 1444.87 26.492ZM1454.24 28.796L1454.62 27.764C1455.01 27.956 1455.41 28.052 1455.83 28.052C1456.56 28.052 1457.14 27.776 1457.57 27.224C1458.01 26.664 1458.27 25.992 1458.38 25.208H1458.35C1458.19 25.448 1457.93 25.64 1457.57 25.784C1457.22 25.928 1456.86 26 1456.48 26C1455.69 26 1455.05 25.736 1454.55 25.208C1454.05 24.68 1453.81 24.016 1453.81 23.216C1453.81 22.384 1454.06 21.704 1454.57 21.176C1455.09 20.648 1455.74 20.384 1456.53 20.384C1457.45 20.384 1458.21 20.752 1458.8 21.488C1459.4 22.224 1459.7 23.188 1459.7 24.38C1459.7 24.94 1459.62 25.496 1459.46 26.048C1459.31 26.592 1459.08 27.1 1458.77 27.572C1458.48 28.044 1458.08 28.424 1457.57 28.712C1457.08 29 1456.51 29.144 1455.88 29.144C1455.26 29.144 1454.71 29.028 1454.24 28.796ZM1456.72 25.004C1457.19 25.004 1457.6 24.884 1457.95 24.644C1458.29 24.396 1458.46 24.12 1458.46 23.816C1458.46 23.24 1458.27 22.708 1457.89 22.22C1457.51 21.724 1457.06 21.476 1456.54 21.476C1456.07 21.476 1455.69 21.64 1455.41 21.968C1455.13 22.288 1454.99 22.704 1454.99 23.216C1454.99 23.744 1455.15 24.176 1455.46 24.512C1455.77 24.84 1456.19 25.004 1456.72 25.004ZM1461.07 25.16C1461.07 24.712 1461.12 24.268 1461.22 23.828C1461.31 23.38 1461.46 22.948 1461.66 22.532C1461.87 22.116 1462.12 21.752 1462.41 21.44C1462.69 21.12 1463.05 20.864 1463.47 20.672C1463.91 20.48 1464.37 20.384 1464.88 20.384C1465.49 20.384 1466.05 20.5 1466.53 20.732L1466.15 21.752C1465.8 21.568 1465.39 21.476 1464.93 21.476C1464.21 21.476 1463.63 21.756 1463.2 22.316C1462.77 22.868 1462.5 23.536 1462.39 24.32H1462.42C1462.59 24.08 1462.85 23.888 1463.2 23.744C1463.55 23.6 1463.91 23.528 1464.29 23.528C1465.08 23.528 1465.73 23.792 1466.22 24.32C1466.72 24.848 1466.97 25.516 1466.97 26.324C1466.97 27.14 1466.71 27.816 1466.2 28.352C1465.69 28.88 1465.03 29.144 1464.24 29.144C1463.33 29.144 1462.57 28.776 1461.97 28.04C1461.37 27.304 1461.07 26.344 1461.07 25.16ZM1464.28 28.052C1464.73 28.052 1465.09 27.888 1465.37 27.56C1465.65 27.232 1465.79 26.82 1465.79 26.324C1465.79 25.788 1465.63 25.356 1465.32 25.028C1465.01 24.692 1464.59 24.524 1464.05 24.524C1463.59 24.524 1463.18 24.64 1462.84 24.872C1462.49 25.104 1462.32 25.404 1462.32 25.772C1462.32 26.292 1462.51 26.804 1462.87 27.308C1463.25 27.804 1463.72 28.052 1464.28 28.052ZM1468.23 29V27.968H1470.11V22.496L1470.12 21.98H1470.09C1470.03 22.1 1469.89 22.264 1469.69 22.472L1468.89 23.24L1468.17 22.496L1470.2 20.528H1471.26V27.968H1473.12V29H1468.23ZM1477.01 27.992L1477.66 27.092C1477.9 27.356 1478.21 27.576 1478.58 27.752C1478.95 27.928 1479.32 28.016 1479.71 28.016C1480.19 28.016 1480.6 27.872 1480.93 27.584C1481.27 27.288 1481.44 26.916 1481.44 26.468C1481.44 25.972 1481.24 25.588 1480.86 25.316C1480.48 25.044 1480.02 24.908 1479.46 24.908H1478.88L1478.6 24.272L1480.45 22.1C1480.53 22.004 1480.62 21.912 1480.7 21.824C1480.79 21.728 1480.86 21.656 1480.91 21.608L1480.98 21.548V21.524C1480.81 21.548 1480.57 21.56 1480.26 21.56H1477.39V20.528H1482.46V21.284L1480.15 23.948C1480.56 23.988 1480.94 24.092 1481.29 24.26C1481.65 24.428 1481.96 24.704 1482.23 25.088C1482.5 25.464 1482.64 25.912 1482.64 26.432C1482.64 27.176 1482.37 27.816 1481.83 28.352C1481.3 28.88 1480.6 29.144 1479.76 29.144C1479.25 29.144 1478.76 29.044 1478.27 28.844C1477.78 28.644 1477.36 28.36 1477.01 27.992ZM1487.02 29.144C1486.48 29.144 1486.01 29.032 1485.61 28.808C1485.21 28.584 1484.89 28.268 1484.67 27.86C1484.45 27.452 1484.28 26.992 1484.18 26.48C1484.07 25.968 1484.02 25.392 1484.02 24.752C1484.02 24.112 1484.07 23.54 1484.18 23.036C1484.28 22.524 1484.45 22.068 1484.67 21.668C1484.89 21.26 1485.21 20.944 1485.61 20.72C1486.01 20.496 1486.48 20.384 1487.02 20.384C1489.02 20.384 1490.02 21.84 1490.02 24.752C1490.02 27.68 1489.02 29.144 1487.02 29.144ZM1485.25 24.752C1485.25 26.952 1485.84 28.052 1487.02 28.052C1488.21 28.052 1488.8 26.952 1488.8 24.752C1488.8 22.568 1488.21 21.476 1487.02 21.476C1485.84 21.476 1485.25 22.568 1485.25 24.752ZM1491.41 26.588C1491.41 26.292 1491.47 26.008 1491.57 25.736C1491.67 25.456 1491.81 25.22 1491.98 25.028C1492.15 24.836 1492.29 24.688 1492.41 24.584C1492.53 24.472 1492.65 24.376 1492.77 24.296C1492.14 23.856 1491.82 23.3 1491.82 22.628C1491.82 22.004 1492.05 21.476 1492.51 21.044C1492.96 20.604 1493.61 20.384 1494.46 20.384C1495.25 20.384 1495.89 20.592 1496.38 21.008C1496.88 21.416 1497.13 21.96 1497.13 22.64C1497.13 23.104 1497.01 23.536 1496.78 23.936C1496.55 24.328 1496.33 24.636 1496.11 24.86C1496.87 25.324 1497.26 25.924 1497.26 26.66C1497.26 27.34 1496.99 27.924 1496.45 28.412C1495.92 28.9 1495.22 29.144 1494.35 29.144C1493.51 29.144 1492.81 28.904 1492.25 28.424C1491.69 27.936 1491.41 27.324 1491.41 26.588ZM1495.19 24.404C1495.71 23.86 1495.96 23.304 1495.96 22.736C1495.96 22.336 1495.82 22.024 1495.54 21.8C1495.26 21.568 1494.89 21.452 1494.44 21.452C1493.99 21.452 1493.64 21.564 1493.38 21.788C1493.13 22.012 1493 22.292 1493 22.628C1493 22.748 1493.01 22.86 1493.05 22.964C1493.09 23.068 1493.13 23.16 1493.18 23.24C1493.23 23.32 1493.31 23.404 1493.42 23.492C1493.52 23.572 1493.61 23.64 1493.69 23.696C1493.77 23.752 1493.89 23.816 1494.03 23.888C1494.18 23.96 1494.3 24.02 1494.39 24.068C1494.49 24.108 1494.62 24.164 1494.8 24.236C1494.97 24.308 1495.11 24.364 1495.19 24.404ZM1492.63 26.492C1492.63 26.948 1492.8 27.328 1493.14 27.632C1493.49 27.928 1493.89 28.076 1494.34 28.076C1494.81 28.076 1495.21 27.944 1495.54 27.68C1495.88 27.408 1496.05 27.06 1496.05 26.636C1496.05 26.452 1496 26.288 1495.91 26.144C1495.83 25.992 1495.7 25.852 1495.51 25.724C1495.31 25.596 1495.14 25.492 1494.99 25.412C1494.84 25.332 1494.61 25.228 1494.31 25.1C1494.01 24.972 1493.79 24.876 1493.66 24.812C1492.97 25.292 1492.63 25.852 1492.63 26.492ZM1501.39 26.732V25.988L1505.32 20.528H1506.66V25.736H1507.81V26.732H1506.66V29H1505.5V26.732H1501.39ZM1502.7 25.736H1505.5V22.64L1505.54 21.788H1505.52C1505.39 22.06 1505.25 22.296 1505.1 22.496L1502.7 25.712V25.736ZM1509.32 28.796L1509.7 27.764C1510.08 27.956 1510.49 28.052 1510.91 28.052C1511.64 28.052 1512.22 27.776 1512.65 27.224C1513.08 26.664 1513.35 25.992 1513.46 25.208H1513.43C1513.26 25.448 1513 25.64 1512.65 25.784C1512.3 25.928 1511.94 26 1511.56 26C1510.77 26 1510.12 25.736 1509.63 25.208C1509.13 24.68 1508.88 24.016 1508.88 23.216C1508.88 22.384 1509.14 21.704 1509.65 21.176C1510.16 20.648 1510.82 20.384 1511.61 20.384C1512.53 20.384 1513.28 20.752 1513.88 21.488C1514.48 22.224 1514.78 23.188 1514.78 24.38C1514.78 24.94 1514.7 25.496 1514.54 26.048C1514.38 26.592 1514.16 27.1 1513.85 27.572C1513.56 28.044 1513.16 28.424 1512.65 28.712C1512.16 29 1511.59 29.144 1510.96 29.144C1510.34 29.144 1509.79 29.028 1509.32 28.796ZM1511.8 25.004C1512.27 25.004 1512.68 24.884 1513.02 24.644C1513.37 24.396 1513.54 24.12 1513.54 23.816C1513.54 23.24 1513.35 22.708 1512.96 22.22C1512.59 21.724 1512.14 21.476 1511.62 21.476C1511.15 21.476 1510.77 21.64 1510.49 21.968C1510.21 22.288 1510.07 22.704 1510.07 23.216C1510.07 23.744 1510.23 24.176 1510.54 24.512C1510.85 24.84 1511.27 25.004 1511.8 25.004ZM1519.19 29C1519.15 28.744 1519.13 28.528 1519.13 28.352C1519.13 27.944 1519.2 27.564 1519.36 27.212C1519.51 26.86 1519.7 26.556 1519.94 26.3C1520.19 26.044 1520.46 25.804 1520.76 25.58C1521.06 25.348 1521.35 25.132 1521.65 24.932C1521.95 24.732 1522.22 24.532 1522.46 24.332C1522.71 24.132 1522.91 23.912 1523.06 23.672C1523.22 23.424 1523.29 23.168 1523.29 22.904C1523.29 22.488 1523.15 22.152 1522.86 21.896C1522.57 21.632 1522.2 21.5 1521.76 21.5C1521.41 21.5 1521.08 21.6 1520.77 21.8C1520.47 22 1520.22 22.26 1520.04 22.58L1519.16 21.992C1519.42 21.52 1519.78 21.136 1520.26 20.84C1520.73 20.536 1521.26 20.384 1521.85 20.384C1522.64 20.384 1523.28 20.608 1523.77 21.056C1524.27 21.504 1524.52 22.092 1524.52 22.82C1524.52 23.252 1524.42 23.656 1524.22 24.032C1524.02 24.408 1523.76 24.72 1523.46 24.968C1523.16 25.208 1522.84 25.456 1522.49 25.712C1522.14 25.968 1521.81 26.196 1521.5 26.396C1521.2 26.596 1520.94 26.836 1520.74 27.116C1520.54 27.388 1520.43 27.672 1520.42 27.968H1524.65V29H1519.19ZM1526.36 28.796L1526.74 27.764C1527.12 27.956 1527.53 28.052 1527.95 28.052C1528.68 28.052 1529.26 27.776 1529.69 27.224C1530.12 26.664 1530.39 25.992 1530.5 25.208H1530.47C1530.3 25.448 1530.04 25.64 1529.69 25.784C1529.34 25.928 1528.98 26 1528.6 26C1527.81 26 1527.16 25.736 1526.67 25.208C1526.17 24.68 1525.92 24.016 1525.92 23.216C1525.92 22.384 1526.18 21.704 1526.69 21.176C1527.2 20.648 1527.86 20.384 1528.65 20.384C1529.57 20.384 1530.32 20.752 1530.92 21.488C1531.52 22.224 1531.82 23.188 1531.82 24.38C1531.82 24.94 1531.74 25.496 1531.58 26.048C1531.42 26.592 1531.2 27.1 1530.89 27.572C1530.6 28.044 1530.2 28.424 1529.69 28.712C1529.2 29 1528.63 29.144 1528 29.144C1527.38 29.144 1526.83 29.028 1526.36 28.796ZM1528.84 25.004C1529.31 25.004 1529.72 24.884 1530.06 24.644C1530.41 24.396 1530.58 24.12 1530.58 23.816C1530.58 23.24 1530.39 22.708 1530 22.22C1529.63 21.724 1529.18 21.476 1528.66 21.476C1528.19 21.476 1527.81 21.64 1527.53 21.968C1527.25 22.288 1527.11 22.704 1527.11 23.216C1527.11 23.744 1527.27 24.176 1527.58 24.512C1527.89 24.84 1528.31 25.004 1528.84 25.004Z" fill="#262626"/>
<g clip-path="url(#clip6_200_248)">
<path d="M1420.34 31.6667L1421.24 28.3547C1420.64 27.3366 1420.33 26.1787 1420.33 25C1420.33 21.318 1423.32 18.3333 1427 18.3333C1430.68 18.3333 1433.67 21.318 1433.67 25C1433.67 28.682 1430.68 31.6667 1427 31.6667C1425.82 31.6686 1424.66 31.3568 1423.65 30.7633L1420.34 31.6667ZM1424.59 21.872C1424.51 21.8774 1424.42 21.9 1424.35 21.9387C1424.27 21.9796 1424.21 22.0308 1424.15 22.0907C1424.07 22.166 1424.03 22.2313 1423.98 22.2947C1423.73 22.6153 1423.6 23.009 1423.6 23.4133C1423.6 23.74 1423.69 24.058 1423.82 24.3553C1424.09 24.9567 1424.54 25.5933 1425.13 26.1833C1425.28 26.3253 1425.42 26.468 1425.57 26.6007C1426.3 27.2483 1427.18 27.7154 1428.13 27.9647L1428.51 28.0227C1428.63 28.0293 1428.75 28.02 1428.88 28.014C1429.07 28.004 1429.26 27.9514 1429.43 27.86C1429.54 27.8013 1429.59 27.772 1429.69 27.7133C1429.69 27.7133 1429.72 27.6947 1429.77 27.6533C1429.86 27.5867 1429.92 27.5393 1429.99 27.4613C1430.05 27.404 1430.09 27.3367 1430.13 27.26C1430.18 27.1513 1430.23 26.944 1430.26 26.7713C1430.27 26.6393 1430.27 26.5673 1430.26 26.5227C1430.26 26.4513 1430.2 26.3773 1430.14 26.346L1429.75 26.172C1429.75 26.172 1429.17 25.9193 1428.82 25.758C1428.78 25.7417 1428.74 25.7325 1428.7 25.7307C1428.65 25.726 1428.61 25.7311 1428.56 25.7457C1428.52 25.7603 1428.48 25.7841 1428.45 25.8153V25.814C1428.44 25.814 1428.4 25.852 1427.92 26.436C1427.89 26.4732 1427.85 26.5013 1427.81 26.5167C1427.76 26.5321 1427.72 26.5342 1427.67 26.5227C1427.63 26.5111 1427.58 26.4964 1427.54 26.4787C1427.46 26.444 1427.43 26.4307 1427.38 26.406L1427.37 26.4047C1426.99 26.2382 1426.64 26.0132 1426.33 25.738C1426.24 25.6647 1426.16 25.5847 1426.08 25.5073C1425.82 25.2562 1425.59 24.972 1425.4 24.662L1425.36 24.5987C1425.34 24.5561 1425.31 24.5102 1425.3 24.462C1425.27 24.364 1425.34 24.2853 1425.34 24.2853C1425.34 24.2853 1425.5 24.108 1425.57 24.012C1425.64 23.9322 1425.7 23.8492 1425.75 23.7633C1425.83 23.6367 1425.85 23.5067 1425.81 23.406C1425.62 22.95 1425.43 22.496 1425.23 22.0453C1425.19 21.956 1425.08 21.892 1424.97 21.8793C1424.93 21.8753 1424.9 21.8713 1424.86 21.8687C1424.77 21.8642 1424.68 21.8651 1424.59 21.8713V21.872Z" fill="#005DFF"/>
</g>
<defs>
<clipPath id="clip0_200_248">
<rect width="68" height="51" fill="white" transform="translate(387 72)"/>
</clipPath>
<clipPath id="clip1_200_248">
<rect width="24" height="24" fill="white" transform="translate(703 110) rotate(-180)"/>
</clipPath>
<clipPath id="clip2_200_248">
<rect width="24" height="24" fill="white" transform="translate(1383 86)"/>
</clipPath>
<clipPath id="clip3_200_248">
<rect width="22" height="22" fill="white" transform="translate(1511 86)"/>
</clipPath>
<clipPath id="clip4_200_248">
<rect width="16" height="16" fill="white" transform="translate(1088 17)"/>
</clipPath>
<clipPath id="clip5_200_248">
<rect width="16" height="16" fill="white" transform="translate(1264 17)"/>
</clipPath>
<clipPath id="clip6_200_248">
<rect width="16" height="16" fill="white" transform="translate(1419 17)"/>
</clipPath>
</defs>
</svg>
